<?xml version="1.0" encoding="utf-8"?>
<!-- Generator: Adobe Illustrator 27.5.0, SVG Export Plug-In . SVG Version: 6.00 Build 0)  -->
<svg version="1.1" xmlns="http://www.w3.org/2000/svg" xmlns:xlink="http://www.w3.org/1999/xlink" x="0px" y="0px"
	 viewBox="0 0 500 500" style="enable-background:new 0 0 500 500;" xml:space="preserve">
<g id="BACKGROUND">
	<rect style="fill:#D7D3EA;" width="500" height="500"/>
</g>
<g id="OBJECTS">
	<g>
		<g>
			<path style="fill:#E6E4F4;" d="M111.459,418.327c9.558-11.327,19.197-22.336,27.933-34.308
				c10.426-14.288,13.704-33.536,8.598-50.47c-2.323-7.704-27.444-32.903-17.794-63.798c7.795-24.958,27.438-23.514,36.266-34.156
				c8.46-10.199,7.084-23.754,8.031-37.269c3.174-45.302,26.038-65.78,60.369-70.983c34.979-5.302,55.405,22.453,59.184,37.282
				c3.78,14.83,4.215,30.389,8.446,45.096c4.231,14.707,13.519,29.319,28.122,33.896c10.374,3.252,21.625,0.936,32.43,2.147
				c14.344,1.607,28.846,11.353,31.095,25.611c2.292,14.53-8.097,27.545-14.821,40.629c-8.963,17.442-11.747,38.518-5.085,56.962
				c6.442,17.834,21.056,32.247,25.233,50.743c3.289,14.564,6.426,39.957-9.212,50.483l-283.786,0.182
				C94.356,449.667,101.326,430.333,111.459,418.327z"/>
		</g>
		<g>
			<g>
				<circle style="fill:#FFFFFF;" cx="75.86" cy="265.171" r="44.686"/>
			</g>
			<g>
				<g>
					<path style="fill:#332433;" d="M77.686,217.865l-31.988,4.219c-2.591,0.342-4.415,2.72-4.074,5.311l7.273,55.152
						c0.342,2.592,2.72,4.415,5.311,4.074l31.988-4.218c2.592-0.342,4.415-2.72,4.074-5.311l-7.273-55.152
						C82.655,219.347,80.278,217.523,77.686,217.865z"/>
				</g>
				<g>
					
						<rect x="47.412" y="227.412" transform="matrix(0.9914 -0.1307 0.1307 0.9914 -32.3995 10.7847)" style="fill:#CE8E28;" width="37.042" height="49.45"/>
				</g>
				<g>
					<path style="fill:#2974B8;" d="M71.25,280.332c0.114,0.868-0.496,1.664-1.364,1.778c-0.868,0.115-1.664-0.496-1.778-1.364
						c-0.114-0.868,0.496-1.664,1.364-1.778C70.339,278.853,71.136,279.464,71.25,280.332z"/>
				</g>
				<g>
					
						<rect x="55.998" y="223.446" transform="matrix(0.9914 -0.1307 0.1307 0.9914 -28.7577 10.0593)" style="fill:#2974B8;" width="12.458" height="1.173"/>
				</g>
				<g>
					<path style="fill:#FFFFFF;" d="M73.013,264.618c2.553-1.357,2.28-5.004,0.043-6.836c-0.536-0.439-1.185-0.779-1.877-0.804
						c-1.283-0.048-2.339,0.945-3.232,1.868c-2.136-3.406-3.859-7.071-5.119-10.889c-0.127-0.384-0.245-0.822-0.052-1.177
						c0.243-0.447,0.831-0.529,1.316-0.683c1.95-0.618,2.799-3.273,1.782-5.047c-1.017-1.774-3.658-2.848-5.365-1.721
						c-4.487,2.962-3.272,8.808-2.589,10.775C59.373,254.284,64.028,269.394,73.013,264.618z"/>
				</g>
			</g>
			<g>
				<polygon style="fill:#2974B8;" points="96.861,246.939 105.302,234.732 107.681,237.805 118.22,227.044 110.061,243.762 
					105.302,240.596 				"/>
			</g>
			<g>
				<polygon style="fill:#2974B8;" points="96.466,256.524 110.676,252.243 110.62,256.13 125.569,254.288 108.766,262.271 
					107.019,256.828 				"/>
			</g>
			<g>
				<polygon style="fill:#2974B8;" points="97.365,268.039 112.049,270.187 110.35,273.684 124.67,278.354 106.068,278.459 
					106.793,272.789 				"/>
			</g>
		</g>
		<g>
			<g>
				<circle style="fill:#FFFFFF;" cx="416.305" cy="193.278" r="44.581"/>
			</g>
			<g>
				<g>
					<rect x="426.314" y="222.804" style="fill:#DD612A;" width="5.043" height="18.245"/>
				</g>
				<g>
					<rect x="434.285" y="226.22" style="fill:#CE8E28;" width="5.043" height="14.828"/>
				</g>
				<g>
					<rect x="442.256" y="220.071" style="fill:#332433;" width="5.043" height="20.978"/>
				</g>
				<g>
					<rect x="450.227" y="214.605" style="fill:#2974B8;" width="5.043" height="26.443"/>
				</g>
				<g>
					<rect x="458.198" y="216.769" style="fill:#C66D5C;" width="5.043" height="24.28"/>
				</g>
				<g>
					<polygon style="fill:#332433;" points="466.771,243.419 423.342,243.419 423.342,213.846 424.342,213.846 424.342,242.419 
						466.771,242.419 					"/>
				</g>
			</g>
			<g>
				<g>
					<path style="fill:#CE8E28;" d="M390.256,171.682l-4.518,2.902c1.039,1.615,1.649,3.532,1.649,5.595
						c0,5.722-4.639,10.361-10.361,10.361c-4.024,0-7.505-2.299-9.221-5.651l-4.782,2.443c2.606,5.09,7.892,8.582,14.003,8.582
						c8.689,0,15.735-7.046,15.735-15.735C392.761,177.046,391.834,174.134,390.256,171.682z"/>
				</g>
				<g>
					<path style="fill:#332433;" d="M366.664,180.178c0-5.722,4.639-10.361,10.361-10.361v-5.374
						c-8.689,0-15.735,7.046-15.735,15.735c0,2.578,0.633,5.005,1.732,7.153l4.782-2.443
						C367.081,183.474,366.664,181.876,366.664,180.178z"/>
				</g>
				<g>
					<path style="fill:#2974B8;" d="M385.737,174.583l4.518-2.902c-2.8-4.35-7.674-7.239-13.23-7.239v5.374
						C380.685,169.817,383.894,171.719,385.737,174.583z"/>
				</g>
			</g>
			<g>
				<g>
					<g>
						<path style="fill:#243B6F;" d="M466.272,146.317c0,5.239-2.126,9.984-5.557,13.415c-3.431,3.441-8.177,5.558-13.416,5.558
							c-5.239,0-9.984-2.126-13.415-5.558c-3.431-3.431-5.558-8.167-5.558-13.415c0-10.477,8.496-18.973,18.973-18.973
							C457.776,127.344,466.272,135.84,466.272,146.317z"/>
					</g>
					<g>
						<path style="fill:#FFFFFF;" d="M466.268,146.315h-18.973v-18.973C457.772,127.342,466.268,135.838,466.268,146.315z"/>
					</g>
					<g>
						<path style="fill:#CE8E28;" d="M466.268,146.315c0,5.239-2.126,9.984-5.557,13.415l-13.415-13.415H466.268z"/>
					</g>
				</g>
				<g>
					<path style="fill:#DD612A;" d="M460.715,159.733c-3.431,3.441-8.177,5.558-13.416,5.558c-5.239,0-9.984-2.126-13.415-5.558
						l13.415-13.415L460.715,159.733z"/>
				</g>
			</g>
			<g>
				<g>
					<path style="fill:#2974B8;" d="M433.401,168.719l-28-4.302c-1.622-0.249-3.138,0.863-3.387,2.485l-5.707,37.14
						c-0.249,1.622,0.863,3.138,2.485,3.387l28,4.302c1.621,0.249,3.138-0.863,3.387-2.485l5.706-37.14
						C436.135,170.484,435.022,168.968,433.401,168.719z"/>
				</g>
				<g>
					
						<rect x="403.977" y="170.432" transform="matrix(0.9884 0.1519 -0.1519 0.9884 31.3925 -61.4786)" style="fill:#243B6F;" width="28.398" height="8.69"/>
				</g>
				<g>
					<g>
						
							<rect x="402.877" y="179.247" transform="matrix(0.9884 0.1519 -0.1519 0.9884 32.2077 -59.5294)" style="fill:#CE8E28;" width="5.829" height="3.648"/>
					</g>
					<g>
						
							<rect x="410.313" y="180.39" transform="matrix(0.9884 0.1519 -0.1519 0.9884 32.468 -60.6464)" style="fill:#CE8E28;" width="5.829" height="3.648"/>
					</g>
					<g>
						
							<rect x="417.749" y="181.532" transform="matrix(0.9884 0.1519 -0.1519 0.9884 32.7271 -61.7614)" style="fill:#CE8E28;" width="5.829" height="3.648"/>
					</g>
					<g>
						
							<rect x="425.185" y="182.675" transform="matrix(0.9884 0.1519 -0.1519 0.9884 32.9869 -62.8775)" style="fill:#CE8E28;" width="5.829" height="3.648"/>
					</g>
				</g>
				<g>
					<g>
						
							<rect x="402.03" y="184.764" transform="matrix(0.9884 0.1519 -0.1519 0.9884 33.0314 -59.3303)" style="fill:#CE8E28;" width="5.829" height="3.648"/>
					</g>
					<g>
						
							<rect x="409.465" y="185.906" transform="matrix(0.9884 0.1519 -0.1519 0.9884 33.2911 -60.4462)" style="fill:#CE8E28;" width="5.829" height="3.648"/>
					</g>
					<g>
						
							<rect x="416.901" y="187.049" transform="matrix(0.9884 0.1519 -0.1519 0.9884 33.5509 -61.5622)" style="fill:#CE8E28;" width="5.829" height="3.648"/>
					</g>
					<g>
						
							<rect x="424.337" y="188.191" transform="matrix(0.9884 0.1519 -0.1519 0.9884 33.8113 -62.6792)" style="fill:#CE8E28;" width="5.829" height="3.648"/>
					</g>
				</g>
				<g>
					<g>
						
							<rect x="401.182" y="190.28" transform="matrix(0.9884 0.1519 -0.1519 0.9884 33.8599 -59.1386)" style="fill:#CE8E28;" width="5.829" height="3.648"/>
					</g>
					<g>
						
							<rect x="408.618" y="191.422" transform="matrix(0.9884 0.1519 -0.1519 0.9884 34.1196 -60.2545)" style="fill:#CE8E28;" width="5.829" height="3.648"/>
					</g>
					<g>
						
							<rect x="416.054" y="192.565" transform="matrix(0.9884 0.1519 -0.1519 0.9884 34.3787 -61.3695)" style="fill:#CE8E28;" width="5.829" height="3.648"/>
					</g>
					<g>
						
							<rect x="423.49" y="193.707" transform="matrix(0.9884 0.1519 -0.1519 0.9884 34.6384 -62.4853)" style="fill:#CE8E28;" width="5.829" height="3.648"/>
					</g>
				</g>
				<g>
					<g>
						
							<rect x="400.334" y="195.796" transform="matrix(0.9884 0.1519 -0.1519 0.9884 34.6915 -58.9512)" style="fill:#CE8E28;" width="5.829" height="3.648"/>
					</g>
					<g>
						
							<rect x="407.77" y="196.939" transform="matrix(0.9884 0.1519 -0.1519 0.9884 34.9512 -60.0672)" style="fill:#CE8E28;" width="5.829" height="3.648"/>
					</g>
					<g>
						
							<rect x="415.206" y="198.081" transform="matrix(0.9884 0.1519 -0.1519 0.9884 35.2117 -61.1843)" style="fill:#CE8E28;" width="5.829" height="3.648"/>
					</g>
					<g>
						
							<rect x="422.218" y="199.191" transform="matrix(0.9884 0.1519 -0.1519 0.9884 35.8802 -62.1964)" style="fill:#CE8E28;" width="5.829" height="9.229"/>
					</g>
				</g>
				<g>
					<g>
						
							<rect x="399.487" y="201.312" transform="matrix(0.9884 0.1519 -0.1519 0.9884 35.5157 -58.7532)" style="fill:#CE8E28;" width="5.829" height="3.648"/>
					</g>
					<g>
						
							<rect x="406.923" y="202.455" transform="matrix(0.9884 0.1519 -0.1519 0.9884 35.7747 -59.8682)" style="fill:#CE8E28;" width="5.829" height="3.648"/>
					</g>
					<g>
						
							<rect x="414.359" y="203.597" transform="matrix(0.9884 0.1519 -0.1519 0.9884 36.0343 -60.984)" style="fill:#CE8E28;" width="5.829" height="3.648"/>
					</g>
				</g>
			</g>
			<g>
				<path style="fill:#CE8E28;" d="M451.683,190.245c-0.842-0.355-1.911-0.504-3.019-0.646c-0.05-2.515-0.101-5.029-0.151-7.543
					c1.126,0.2,2.05,0.832,2.351,2.021c0.468,1.851,3.332,1.067,2.862-0.789c-0.683-2.699-2.837-3.959-5.272-4.149
					c-0.017-0.834-0.033-1.667-0.05-2.501c-0.038-1.908-3.007-1.914-2.968,0c0.018,0.921,0.037,1.843,0.055,2.764
					c-3.742,0.915-7.039,3.948-5.735,7.826c0.628,1.868,2.333,3.435,4.079,4.267c0.515,0.245,1.18,0.383,1.908,0.482
					c0.041,2.049,0.082,4.099,0.123,6.148c-1.595-0.135-3-0.925-3.476-2.739c-0.485-1.846-3.349-1.063-2.862,0.789
					c0.792,3.014,3.468,4.619,6.398,4.91c0.018,0.916,0.037,1.831,0.055,2.747c0.038,1.908,3.007,1.914,2.968,0
					c-0.019-0.965-0.039-1.93-0.058-2.895c2.396-0.477,4.595-1.819,5.691-3.981C456.035,194.091,454.448,191.41,451.683,190.245z
					 M442.807,186.799c-0.814-2.031,0.765-3.696,2.744-4.422c0.045,2.233,0.089,4.466,0.134,6.7
					C444.405,188.712,443.323,188.084,442.807,186.799z M448.826,197.721c-0.036-1.801-0.072-3.603-0.108-5.404
					c1.307,0.197,2.474,0.542,3.048,1.4C452.795,195.253,451.076,196.947,448.826,197.721z"/>
			</g>
			<g>
				<path style="fill:#2974B8;" d="M409.746,144.955c-0.74-0.312-1.679-0.443-2.653-0.568c-0.044-2.209-0.088-4.419-0.132-6.628
					c0.99,0.176,1.801,0.731,2.066,1.776c0.411,1.626,2.927,0.937,2.515-0.693c-0.6-2.372-2.493-3.478-4.632-3.645
					c-0.015-0.733-0.029-1.465-0.044-2.197c-0.034-1.676-2.642-1.682-2.608,0c0.016,0.81,0.032,1.619,0.049,2.429
					c-3.288,0.804-6.185,3.469-5.039,6.877c0.552,1.641,2.05,3.019,3.584,3.749c0.452,0.216,1.036,0.337,1.676,0.424
					c0.036,1.801,0.072,3.602,0.108,5.402c-1.402-0.118-2.636-0.813-3.055-2.407c-0.426-1.622-2.943-0.934-2.515,0.693
					c0.696,2.648,3.047,4.058,5.622,4.314c0.016,0.805,0.032,1.609,0.048,2.414c0.034,1.676,2.642,1.682,2.608,0
					c-0.017-0.848-0.034-1.696-0.051-2.543c2.105-0.419,4.037-1.598,5.001-3.499C413.57,148.334,412.175,145.979,409.746,144.955z
					 M401.947,141.928c-0.716-1.784,0.672-3.248,2.411-3.886c0.039,1.962,0.078,3.924,0.118,5.887
					C403.35,143.608,402.399,143.056,401.947,141.928z M407.235,151.525c-0.032-1.583-0.063-3.166-0.095-4.748
					c1.148,0.173,2.173,0.477,2.678,1.23C410.722,149.355,409.212,150.844,407.235,151.525z"/>
			</g>
			<g>
				<path style="fill:#DD612A;" d="M381.492,216.481c-0.644-0.271-1.462-0.386-2.311-0.495c-0.038-1.925-0.077-3.849-0.115-5.774
					c0.862,0.153,1.569,0.637,1.799,1.547c0.358,1.417,2.55,0.816,2.191-0.604c-0.522-2.066-2.172-3.03-4.035-3.176
					c-0.013-0.638-0.025-1.276-0.038-1.914c-0.029-1.46-2.301-1.465-2.272,0c0.014,0.705,0.028,1.411,0.042,2.116
					c-2.865,0.701-5.388,3.022-4.39,5.991c0.481,1.43,1.786,2.63,3.122,3.266c0.394,0.188,0.903,0.293,1.46,0.369
					c0.031,1.569,0.063,3.137,0.094,4.706c-1.221-0.103-2.296-0.708-2.661-2.096c-0.371-1.413-2.563-0.814-2.191,0.604
					c0.606,2.307,2.655,3.535,4.897,3.758c0.014,0.701,0.028,1.402,0.042,2.103c0.029,1.46,2.301,1.465,2.272,0
					c-0.015-0.739-0.029-1.477-0.044-2.216c1.834-0.365,3.517-1.392,4.356-3.048C384.823,219.425,383.608,217.373,381.492,216.481z
					 M374.698,213.844c-0.624-1.554,0.585-2.829,2.1-3.385c0.034,1.709,0.068,3.419,0.103,5.128
					C375.921,215.308,375.092,214.827,374.698,213.844z M379.305,222.204c-0.028-1.379-0.055-2.758-0.083-4.137
					c1.001,0.151,1.893,0.415,2.333,1.071C382.343,220.315,381.027,221.612,379.305,222.204z"/>
			</g>
		</g>
		<g>
			<g>
				<circle style="fill:#FFFFFF;" cx="93.311" cy="139.472" r="55.056"/>
			</g>
			<g>
				<g>
					<path style="fill:#CE8E28;" d="M87.593,97.55L39.97,91.815c-1.931-0.232-3.684,1.144-3.917,3.075l-8.198,68.079
						c-0.233,1.931,1.144,3.684,3.075,3.917l47.624,5.735c1.931,0.232,3.684-1.144,3.917-3.075l8.198-68.079
						C90.901,99.536,89.524,97.783,87.593,97.55z"/>
				</g>
				<g>
					
						<rect x="35.782" y="99.001" transform="matrix(0.9928 0.1196 -0.1196 0.9928 16.1955 -6.1436)" style="fill:#FFFFFF;" width="47.035" height="65.806"/>
				</g>
				<g>
					<g>
						<path style="fill:#BCB8D8;" d="M68.441,92.376c0.287-2.385-1.414-4.552-3.799-4.839c-2.385-0.287-4.552,1.414-4.839,3.799
							l-6.485-0.781l-1.258,10.443l21.609,2.602l1.258-10.443L68.441,92.376z M64.349,89.971c1.041,0.125,1.783,1.071,1.658,2.112
							c-0.125,1.041-1.071,1.783-2.112,1.658c-1.041-0.125-1.783-1.071-1.658-2.112C62.363,90.588,63.308,89.846,64.349,89.971z"/>
					</g>
				</g>
				<g>
					<g>
						<g>
							<path style="fill:#BCB8D8;" d="M45.329,109.053c7.434,0.895,14.868,1.79,22.301,2.685c0.637,0.077,0.632-0.924,0-1
								c-7.434-0.895-14.868-1.79-22.301-2.685C44.691,107.976,44.697,108.977,45.329,109.053L45.329,109.053z"/>
						</g>
					</g>
					<g>
						<g>
							<path style="fill:#BCB8D8;" d="M44.024,119.889c7.434,0.895,14.868,1.79,22.301,2.686c0.638,0.077,0.632-0.924,0-1
								c-7.434-0.895-14.868-1.79-22.301-2.686C43.386,118.813,43.392,119.813,44.024,119.889L44.024,119.889z"/>
						</g>
					</g>
					<g>
						<g>
							<path style="fill:#BCB8D8;" d="M42.719,130.726c7.434,0.895,14.868,1.79,22.301,2.686c0.638,0.077,0.632-0.924,0-1
								c-7.434-0.895-14.868-1.79-22.301-2.686C42.081,129.649,42.087,130.65,42.719,130.726L42.719,130.726z"/>
						</g>
					</g>
					<g>
						<g>
							<path style="fill:#BCB8D8;" d="M41.414,141.563c7.434,0.895,14.868,1.79,22.301,2.685c0.638,0.077,0.632-0.924,0-1
								c-7.434-0.895-14.868-1.79-22.301-2.685C40.776,140.486,40.782,141.486,41.414,141.563L41.414,141.563z"/>
						</g>
					</g>
					<g>
						<g>
							<path style="fill:#BCB8D8;" d="M40.109,152.399c7.434,0.895,14.868,1.79,22.301,2.686c0.638,0.077,0.632-0.924,0-1
								c-7.434-0.895-14.868-1.79-22.301-2.686C39.471,151.322,39.477,152.323,40.109,152.399L40.109,152.399z"/>
						</g>
					</g>
				</g>
				<g>
					<g>
						<path style="fill:#BCB8D8;" d="M75.792,115.716c-0.122,0-0.246-0.007-0.37-0.022c-0.816-0.099-1.545-0.509-2.053-1.155
							c-0.508-0.646-0.733-1.452-0.635-2.268c0.098-0.816,0.508-1.544,1.155-2.052c0.646-0.508,1.45-0.735,2.269-0.635
							c1.684,0.203,2.89,1.738,2.687,3.423v0C78.657,114.566,77.326,115.716,75.792,115.716z M75.786,110.561
							c-0.462,0-0.909,0.154-1.278,0.444c-0.437,0.343-0.713,0.835-0.779,1.385c-0.137,1.137,0.676,2.173,1.814,2.311
							c1.138,0.14,2.173-0.677,2.31-1.814c0.137-1.137-0.677-2.173-1.813-2.31C75.954,110.566,75.87,110.561,75.786,110.561z"/>
					</g>
					<g>
						<path style="fill:#243B6F;" d="M75.79,113.139c-0.045,0-0.09-0.006-0.134-0.018c-0.143-0.04-0.261-0.141-0.322-0.275
							l-1.547-3.416c-0.114-0.252-0.002-0.548,0.249-0.662c0.254-0.114,0.548-0.002,0.662,0.249l1.301,2.872l4.821-3.32
							c0.229-0.157,0.539-0.099,0.695,0.128c0.157,0.228,0.1,0.539-0.128,0.695l-5.313,3.659
							C75.989,113.108,75.89,113.139,75.79,113.139z"/>
					</g>
				</g>
				<g>
					<g>
						<path style="fill:#BCB8D8;" d="M74.581,125.767c-0.122,0-0.246-0.007-0.37-0.022c-0.816-0.099-1.545-0.509-2.053-1.155
							c-0.508-0.646-0.733-1.452-0.635-2.268c0.098-0.816,0.508-1.545,1.155-2.052c0.646-0.507,1.45-0.733,2.269-0.635
							c1.684,0.203,2.89,1.738,2.687,3.423v0C77.446,124.618,76.115,125.767,74.581,125.767z M74.575,120.612
							c-0.462,0-0.909,0.154-1.278,0.444c-0.437,0.343-0.713,0.834-0.779,1.385c-0.066,0.551,0.085,1.095,0.428,1.531
							c0.342,0.436,0.835,0.713,1.386,0.779c1.138,0.134,2.173-0.677,2.31-1.814c0.066-0.551-0.086-1.094-0.428-1.531
							c-0.343-0.437-0.835-0.713-1.385-0.779C74.744,120.618,74.659,120.612,74.575,120.612z"/>
					</g>
					<g>
						<path style="fill:#243B6F;" d="M74.58,123.19c-0.045,0-0.09-0.006-0.134-0.018c-0.143-0.04-0.261-0.141-0.322-0.275
							l-1.547-3.416c-0.114-0.252-0.002-0.548,0.249-0.662c0.253-0.114,0.549-0.002,0.662,0.249l1.301,2.872l4.821-3.32
							c0.229-0.157,0.539-0.099,0.695,0.128c0.157,0.228,0.1,0.539-0.128,0.695l-5.313,3.659
							C74.779,123.16,74.68,123.19,74.58,123.19z"/>
					</g>
				</g>
				<g>
					<g>
						<path style="fill:#BCB8D8;" d="M73.371,135.818c-0.122,0-0.246-0.007-0.37-0.022c-1.685-0.203-2.89-1.739-2.687-3.423
							c0.203-1.684,1.736-2.888,3.423-2.688c1.685,0.203,2.89,1.739,2.688,3.423v0.001
							C76.236,134.669,74.905,135.818,73.371,135.818z M73.368,130.664c-1.036,0-1.934,0.776-2.061,1.829
							c-0.137,1.137,0.677,2.173,1.814,2.31c1.137,0.136,2.173-0.678,2.31-1.814c0.137-1.137-0.677-2.173-1.814-2.31
							C73.534,130.669,73.45,130.664,73.368,130.664z"/>
					</g>
					<g>
						<path style="fill:#243B6F;" d="M73.369,133.241c-0.045,0-0.09-0.006-0.134-0.018c-0.143-0.04-0.261-0.141-0.322-0.275
							l-1.547-3.416c-0.114-0.252-0.002-0.548,0.249-0.662c0.254-0.114,0.548-0.002,0.662,0.249l1.301,2.872l4.821-3.32
							c0.229-0.157,0.54-0.099,0.695,0.128c0.157,0.228,0.1,0.539-0.128,0.695l-5.313,3.659
							C73.568,133.211,73.469,133.241,73.369,133.241z"/>
					</g>
				</g>
				<g>
					<g>
						<path style="fill:#BCB8D8;" d="M72.165,145.87c-0.124,0-0.249-0.007-0.375-0.022c-1.684-0.203-2.89-1.738-2.687-3.423
							c0.204-1.685,1.741-2.886,3.423-2.688c0.816,0.099,1.545,0.509,2.053,1.155c0.508,0.646,0.733,1.452,0.635,2.268
							c-0.098,0.816-0.508,1.545-1.155,2.052C73.512,145.643,72.85,145.87,72.165,145.87z M72.158,140.715
							c-1.036,0-1.934,0.776-2.061,1.829c-0.066,0.551,0.086,1.094,0.428,1.531c0.343,0.437,0.835,0.713,1.385,0.779
							c0.55,0.069,1.095-0.086,1.531-0.428c0.437-0.343,0.713-0.835,0.779-1.385v-0.001c0.066-0.551-0.085-1.094-0.428-1.531
							c-0.342-0.436-0.834-0.713-1.386-0.779C72.323,140.72,72.24,140.715,72.158,140.715z"/>
					</g>
					<g>
						<path style="fill:#243B6F;" d="M72.159,143.292c-0.045,0-0.09-0.006-0.134-0.018c-0.143-0.04-0.261-0.141-0.322-0.275
							l-1.547-3.416c-0.114-0.252-0.002-0.548,0.249-0.662c0.254-0.114,0.548-0.002,0.662,0.249l1.301,2.872l4.821-3.32
							c0.23-0.157,0.54-0.099,0.695,0.128c0.157,0.228,0.1,0.539-0.128,0.695l-5.313,3.659
							C72.358,143.262,72.259,143.292,72.159,143.292z"/>
					</g>
				</g>
				<g>
					<g>
						<path style="fill:#BCB8D8;" d="M70.955,155.921c-0.124,0-0.249-0.007-0.375-0.023c-1.684-0.203-2.89-1.738-2.687-3.423
							c0.204-1.684,1.74-2.89,3.423-2.688c0.816,0.099,1.545,0.509,2.053,1.155c0.508,0.646,0.733,1.452,0.635,2.268
							c-0.098,0.816-0.508,1.545-1.155,2.052C72.301,155.694,71.64,155.921,70.955,155.921z M70.947,150.767
							c-1.036,0-1.934,0.776-2.061,1.829c-0.137,1.137,0.677,2.173,1.813,2.31c0.55,0.068,1.095-0.086,1.531-0.428
							c0.436-0.343,0.713-0.834,0.779-1.385v-0.001c0.137-1.137-0.676-2.173-1.814-2.31
							C71.113,150.771,71.029,150.767,70.947,150.767z"/>
					</g>
					<g>
						<path style="fill:#243B6F;" d="M70.948,153.344c-0.045,0-0.09-0.006-0.134-0.018c-0.143-0.04-0.261-0.141-0.322-0.275
							l-1.547-3.416c-0.114-0.252-0.002-0.548,0.249-0.662c0.254-0.115,0.549-0.002,0.662,0.249l1.301,2.872l4.821-3.32
							c0.229-0.157,0.54-0.099,0.695,0.128c0.157,0.228,0.1,0.539-0.128,0.695l-5.313,3.659
							C71.147,153.314,71.048,153.344,70.948,153.344z"/>
					</g>
				</g>
			</g>
			<g>
				<g>
					
						<rect x="96.875" y="133.888" transform="matrix(0.9652 0.2614 -0.2614 0.9652 42.0329 -20.7957)" style="fill:#243B6F;" width="4.642" height="27.464"/>
				</g>
				<g>
					
						<rect x="100.919" y="130.943" transform="matrix(0.9652 0.2614 -0.2614 0.9652 38.2698 -22.3721)" style="fill:#243B6F;" width="4.642" height="3.483"/>
				</g>
				<g>
					
						<rect x="93.774" y="163.849" transform="matrix(0.9652 0.2614 -0.2614 0.9652 46.5184 -18.918)" style="fill:#243B6F;" width="1.204" height="3.129"/>
				</g>
				<g>
					<polygon style="fill:#BCB8D8;" points="97.846,161.482 95.631,165.201 93.4,164.597 93.364,160.268 					"/>
				</g>
				<g>
					
						<rect x="100.675" y="132.776" transform="matrix(0.9652 0.2614 -0.2614 0.9652 38.5465 -22.4595)" style="fill:#BCB8D8;" width="6.06" height="1.806"/>
				</g>
				<g>
					
						<rect x="105.158" y="132.99" transform="matrix(0.9652 0.2614 -0.2614 0.9652 40.2714 -22.7932)" style="fill:#243B6F;" width="1.333" height="14.017"/>
				</g>
				<g>
					<path style="fill:#BCB8D8;" d="M104.639,127.517c-0.688-0.186-1.397,0.22-1.584,0.909l-0.607,2.24l2.492,0.675l0.607-2.24
						C105.734,128.413,105.327,127.703,104.639,127.517z"/>
				</g>
			</g>
			<g>
				<g>
					<path style="fill:#DD612A;" d="M140.459,56.959l-38.589,7.134l10.224,55.302l38.589-7.134c0.715-0.132,1.188-0.819,1.055-1.534
						l-9.745-52.713C141.861,57.299,141.174,56.827,140.459,56.959z"/>
				</g>
				<g>
					<path style="fill:#C95628;" d="M97.803,64.845c-1.093,0.202-1.815,1.252-1.613,2.344l9.492,51.345
						c0.202,1.093,1.252,1.815,2.344,1.613l4.066-0.752l-10.224-55.302L97.803,64.845z"/>
				</g>
				<g>
					
						<rect x="115.839" y="79.35" transform="matrix(0.9833 -0.1818 0.1818 0.9833 -12.8177 24.0307)" style="fill:#FFFFFF;" width="17.676" height="5.17"/>
				</g>
				<g>
					<polygon style="fill:#243B6F;" points="126.588,129.864 123.168,127.529 121.039,130.89 118.689,118.176 124.237,117.15 					
						"/>
				</g>
			</g>
		</g>
		<g>
			<g>
				<circle style="fill:#FFFFFF;" cx="340.603" cy="92.966" r="54.684"/>
			</g>
			<g>
				<g>
					<g>
						<path style="fill:#332433;" d="M377.622,70.794h-55.971c-1.052,0-1.963,0.731-2.19,1.758l-7.685,34.658h59.204l7.764-35.017
							C378.904,71.475,378.357,70.794,377.622,70.794z"/>
					</g>
					<g>
						<polygon style="fill:#2974B8;" points="369.165,105.542 314.488,105.542 321.665,72.463 376.343,72.463 						"/>
					</g>
					<g>
						<rect x="311.776" y="107.21" style="fill:#4E3B4F;" width="59.205" height="5.433"/>
					</g>
					<g>
						<rect x="297.632" y="107.21" style="fill:#755B77;" width="59.205" height="5.433"/>
					</g>
				</g>
				<g>
					<g>
						<path style="fill:#FFFFFF;" d="M358.575,88.837c0,0.365-0.015,0.73-0.042,1.092c-0.038,0.476-0.099,0.943-0.179,1.404
							c-0.141,0.765-0.339,1.506-0.597,2.225c-0.894,2.492-2.476,4.656-4.519,6.257c-2.377,1.875-5.371,2.99-8.631,2.99
							c-7.714,0-13.968-6.254-13.968-13.968c0-0.768,0.061-1.525,0.182-2.259c0.852-5.242,4.622-9.502,9.586-11.065
							c1.324-0.418,2.735-0.643,4.199-0.643c3.366,0,6.455,1.191,8.867,3.176C356.589,80.605,358.575,84.489,358.575,88.837z"/>
					</g>
					<g>
						<path style="fill:#332433;" d="M345.493,95.802c-0.087,0.506-0.765,0.688-0.989,1.153c-0.206,0.422-0.008,1.031-0.373,1.328
							c-0.263,0.213-0.689,0.133-0.928,0.373c-0.236,0.232-0.16,0.62-0.251,0.939c-0.133,0.456-0.689,0.742-1.137,0.582
							c0.167,0.068,0.202,0.3,0.137,0.468c-0.061,0.167-0.183,0.308-0.247,0.476c-0.198,0.517,0.213,1.05,0.593,1.449
							c-0.548,0.019-0.978-0.453-1.32-0.883c-0.521-0.658-1.054-1.327-1.4-2.092c-0.407-0.909-0.708-2.088-1.67-2.328
							c-0.125-0.03-0.259-0.046-0.361-0.122c-0.171-0.126-0.19-0.369-0.274-0.563c-0.221-0.513-0.898-0.7-1.126-1.21
							c-0.194-0.434,0.004-0.928,0.091-1.396c0.087-0.468-0.057-1.084-0.525-1.16c-0.228-0.038-0.536,0.049-0.647-0.156
							c-0.084-0.152,0.027-0.358-0.061-0.506c-0.076-0.129-0.247-0.145-0.396-0.171c-0.574-0.11-1.035-0.658-1.039-1.24
							c-0.597,0.403-1.544,0.046-1.727-0.647c-0.084-0.308-0.03-0.635-0.08-0.947c-0.046-0.316-0.247-0.654-0.563-0.677
							c0.152,0.449,0.255,0.909,0.308,1.381c-0.358,0.057-0.514-0.43-0.525-0.791c-0.027-0.86-0.053-1.67-0.164-2.484
							c0.852-5.242,4.622-9.502,9.586-11.065c0.145-0.015,0.289-0.008,0.422,0.042c0.224,0.088,0.403,0.335,0.323,0.559
							c-0.137,0.023-0.274,0.042-0.407,0.065c-0.008,0.114-0.015,0.228-0.023,0.342c-0.129,0.011-0.255,0.023-0.384,0.034
							c-0.141,0.205-0.285,0.407-0.426,0.609c0.293,0.243,0.54,0.536,0.73,0.867c0.148,0.259,0.262,0.563,0.179,0.848
							c-0.084,0.285-0.441,0.495-0.692,0.335c0.053,0.171,0.107,0.342,0.164,0.514c-0.304,0.152-0.669-0.011-0.921-0.228
							c-0.255-0.221-0.464-0.502-0.761-0.658c-0.297-0.156-0.738-0.118-0.879,0.186c0.213,0.232,0.141,0.662-0.137,0.81
							c-0.278,0.148-0.677-0.027-0.753-0.335c-0.316,0.148-0.647,0.304-0.863,0.582c-0.213,0.278-0.266,0.711-0.015,0.959
							c0.118,0.118,0.285,0.179,0.396,0.3c0.304,0.335,0.186,1.076,0.635,1.111c-0.129-0.643,0.327-1.347,0.966-1.487
							c-0.129-0.179-0.289-0.339-0.468-0.468c0.438,0.088,0.369-0.863,0.806-0.928c0.103-0.012,0.205,0.03,0.297,0.084
							c0.475,0.27,0.814,0.772,0.89,1.316c0.068-0.297,0.316-0.59,0.616-0.567c0.304,0.023,0.468,0.517,0.19,0.639
							c0.399,0.228,0.803,0.456,1.202,0.685c-0.076,0.3-0.152,0.601-0.228,0.901c0.095,0.038,0.194,0.08,0.293,0.118
							c-0.008,0.228-0.015,0.453-0.023,0.681c-0.346-0.057-0.692-0.118-1.038-0.175c0.148-0.175,0.198-0.426,0.129-0.647
							c-0.437,0.065-0.879,0.129-1.32,0.19c-0.213,0.263,0.087,0.666,0.418,0.746c0.331,0.084,0.685-0.004,1.012,0.095
							c-0.107,0.453-0.7,0.567-1.16,0.506c-0.46-0.065-0.97-0.198-1.354,0.065c-0.453,0.316-0.491,1.065-0.997,1.293
							c-0.16,0.076-0.361,0.088-0.479,0.224c-0.209,0.243,0.027,0.688-0.198,0.917c-0.145,0.148-0.388,0.114-0.582,0.19
							c-0.38,0.145-0.457,0.662-0.361,1.061c0.095,0.396,0.297,0.784,0.247,1.191c-0.73,0.099-0.685-1.529-1.415-1.449
							c-0.308,0.03-0.479,0.384-0.768,0.491c-0.175,0.061-0.369,0.03-0.54,0.099c-0.327,0.137-0.396,0.563-0.415,0.921
							c-0.015,0.293-0.027,0.601,0.103,0.864c0.129,0.262,0.46,0.449,0.723,0.323c0.251-0.118,0.323-0.434,0.513-0.635
							c0.19-0.198,0.666-0.088,0.555,0.163c-0.034,0.084-0.126,0.126-0.194,0.186c-0.259,0.232-0.118,0.746,0.221,0.81
							c0.107,0.023,0.217,0.004,0.323,0.019c0.559,0.084,0.635,0.852,0.571,1.411c0.453,0.198,1.061,0.358,1.369-0.027
							c0.145-0.175,0.19-0.445,0.396-0.54c0.209-0.095,0.438,0.049,0.651,0.141c0.723,0.316,1.712,0.076,2.221,0.681
							c0.133,0.156,0.217,0.358,0.388,0.472c0.179,0.122,0.415,0.11,0.628,0.152c0.361,0.072,0.689,0.301,0.879,0.616
							c0.087,0.152,0.152,0.327,0.285,0.445c0.133,0.122,0.32,0.163,0.495,0.202c0.479,0.106,0.958,0.213,1.438,0.316
							C344.862,94.873,345.596,95.212,345.493,95.802z"/>
					</g>
					<g>
						<path style="fill:#332433;" d="M341.998,75.811c-0.116,0.114-0.235,0.232-0.294,0.383c-0.059,0.151-0.042,0.345,0.084,0.447
							c0.188,0.153,0.535,0.056,0.652,0.268c0.145,0.261-0.285,0.602-0.112,0.845c0.041,0.058,0.109,0.092,0.158,0.144
							c0.181,0.193,0.029,0.503,0.046,0.767c0.01,0.155,0.081,0.298,0.152,0.436c0.166,0.326,0.349,0.672,0.67,0.849
							c0.32,0.177,0.815,0.085,0.92-0.266c0.045-0.15,0.012-0.314,0.043-0.467c0.068-0.334,0.424-0.537,0.762-0.575
							c0.338-0.038,0.678,0.044,1.018,0.057c0.079,0.003,0.161,0.002,0.232-0.035c0.077-0.04,0.127-0.117,0.174-0.191
							c0.142-0.224,0.285-0.448,0.427-0.672c0.135-0.213,0.276-0.472,0.178-0.704c-0.048-0.113-0.144-0.196-0.224-0.289
							c-0.256-0.297-0.351-0.726-0.243-1.104c-0.184,0.117-0.432,0.032-0.605-0.101c-0.172-0.133-0.311-0.313-0.505-0.414
							c-0.301-0.157-0.675-0.091-0.978,0.063c-0.214,0.109-0.463,0.261-0.672,0.143C343.087,74.945,342.679,75.142,341.998,75.811z"
							/>
					</g>
					<g>
						<path style="fill:#332433;" d="M357.407,88.928c0.209,0.837,0.529,1.651,0.947,2.404c-0.141,0.765-0.339,1.506-0.597,2.225
							c-0.163,0.202-0.339,0.392-0.525,0.574c-0.11,0.11-0.228,0.217-0.316,0.346c-0.137,0.202-0.194,0.441-0.262,0.677
							c-0.24,0.852-0.601,1.704-1.263,2.294c-0.293,0.262-0.635,0.468-0.898,0.761c-0.289,0.32-0.464,0.73-0.723,1.076
							c-0.152,0.202-0.331,0.38-0.533,0.529c-0.335,0.251-0.73,0.422-1.141,0.491c-0.179,0.027-0.396,0.019-0.491-0.133
							c-0.065-0.114-0.034-0.255,0-0.38c0.255-0.882,0.692-1.708,1.278-2.412c0.297-0.354,0.631-0.685,0.848-1.088
							c0.221-0.407,0.308-0.921,0.088-1.324c-0.088-0.156-0.221-0.297-0.236-0.476c-0.046-0.449,0.654-0.81,0.445-1.21
							c-0.126-0.236-0.46-0.228-0.727-0.183c-0.624,0.106-1.252,0.209-1.875,0.316c-0.266,0.042-0.54,0.088-0.795,0.011
							c-0.259-0.08-0.487-0.316-0.464-0.582c0.019-0.186,0.152-0.354,0.129-0.536c-0.03-0.243-0.301-0.358-0.487-0.514
							c-0.38-0.312-0.456-0.94-0.16-1.331c0.141-0.19,0.361-0.346,0.38-0.582c0.023-0.232-0.164-0.43-0.217-0.654
							c-0.08-0.361,0.186-0.704,0.472-0.936c0.281-0.232,0.62-0.43,0.776-0.765c0.156-0.335,0.145-0.814,0.483-0.962
							c0.11-0.05,0.232-0.046,0.354-0.05c0.555-0.011,1.107-0.129,1.62-0.35c0.243-0.103,0.498-0.232,0.757-0.186
							c0.263,0.049,0.468,0.392,0.289,0.586c0.274-0.167,0.59,0.125,0.795,0.377c0.205,0.247,0.601,0.483,0.81,0.24
							c0.08-0.091,0.114-0.24,0.232-0.262c0.11-0.023,0.194,0.076,0.274,0.152c0.247,0.243,0.673,0.297,0.955,0.099
							c0.285-0.202,0.369-0.65,0.152-0.921c-0.346,0.122-0.768-0.057-0.921-0.388c-0.156-0.331-0.015-0.768,0.301-0.951
							c0.076-0.046,0.164-0.08,0.221-0.145c0.171-0.205-0.049-0.502-0.259-0.669c-0.24-0.198-0.7-0.331-0.768-0.027
							c-0.015,0.057-0.004,0.114,0.004,0.175c0.095,0.586,0.194,1.175,0.289,1.765c-0.236,0.053-0.472-0.133-0.582-0.35
							c-0.11-0.217-0.133-0.468-0.213-0.696c-0.183-0.533-0.67-0.951-1.225-1.05c-0.087,0.251,0.118,0.514,0.342,0.654
							c0.224,0.145,0.491,0.247,0.643,0.464c0.152,0.221,0.072,0.612-0.194,0.628c-0.506-0.635-1.008-1.271-1.514-1.906
							c-0.156,0.339-0.506,0.574-0.875,0.593c0.179,0.323,0.065,0.772-0.243,0.97c0.255,0.049,0.057,0.468-0.198,0.513
							c-0.255,0.046-0.586,0-0.711,0.232c-0.38,0.186-0.742-0.278-0.913-0.666c-0.072-0.164-0.145-0.331-0.217-0.498
							c-0.034-0.068-0.065-0.141-0.069-0.221c-0.011-0.365,0.529-0.422,0.883-0.331c0.358,0.091,0.882,0.088,0.921-0.278
							c0.023-0.205-0.156-0.377-0.339-0.479c-0.179-0.103-0.388-0.187-0.498-0.361c-0.11-0.175-0.027-0.479,0.183-0.475
							c0.236-0.023,0.472-0.049,0.707-0.072c-0.091-0.308,0.046-0.666,0.316-0.837c-0.118-0.141-0.179-0.327-0.167-0.513
							c0.415,0.548,1.4,0.532,1.746-0.065c0.061-0.106,0.107-0.232,0.099-0.354c-0.034-0.582-1.035-0.825-0.913-1.392
							c-0.144,0.011-0.293,0.027-0.437,0.038c0.399,0.479,0.639,1.088,0.669,1.712h-0.555c0.027-0.266,0.027-0.574-0.171-0.757
							c-0.198-0.183-0.628-0.023-0.548,0.236c-0.582-0.171-0.951-0.864-0.776-1.446c0.038-0.114,0.091-0.228,0.103-0.35
							c0.042-0.449-0.495-0.913-0.228-1.278c0.373-0.514,1.069,0.266,1.457,0.346c0.122,0.023,0.232,0.03,0.342,0.023
							c3.115,2.56,5.101,6.444,5.101,10.792c0,0.365-0.015,0.73-0.042,1.092C358.217,89.533,357.837,89.194,357.407,88.928z"/>
					</g>
					<g>
						<path style="fill:#332433;" d="M351.744,81.514c-0.162-0.069-0.373-0.09-0.451-0.248c-0.038-0.076-0.033-0.165-0.045-0.249
							c-0.059-0.409-0.618-0.643-0.95-0.397l0.282,0.028c-0.156,0.005-0.298,0.059-0.311,0.202c-0.01,0.114,0.083,0.212,0.182,0.27
							c0.145,0.085,0.313,0.12,0.465,0.192c0.152,0.072,0.296,0.2,0.31,0.367c0.013,0.147-0.078,0.283-0.096,0.43
							c-0.032,0.26,0.206,0.514,0.468,0.518c0.262,0.004,0.501-0.224,0.529-0.485C352.155,81.88,351.986,81.617,351.744,81.514z"/>
					</g>
					<g>
						<path style="fill:#332433;" d="M350.197,81.517c-0.208-0.007-0.376,0.281-0.228,0.427l-0.02-0.002
							c-0.193,0.144-0.025,0.505,0.216,0.504c0.241-0.001,0.419-0.262,0.406-0.502C350.559,81.737,350.404,81.523,350.197,81.517z"
							/>
					</g>
					<g>
						<path style="fill:#332433;" d="M348.411,78.763c-0.151-0.119-0.371-0.143-0.543-0.059l-0.055-0.045
							c-0.111,0.146-0.281,0.245-0.463,0.269c-0.069,0.009-0.142,0.008-0.202,0.043c-0.142,0.082-0.117,0.304-0.013,0.43
							c0.143,0.173,0.381,0.244,0.605,0.237c0.224-0.007,0.44-0.082,0.652-0.157c0.051-0.018,0.104-0.037,0.142-0.076
							c0.033-0.034,0.051-0.081,0.061-0.127C348.636,79.09,348.562,78.882,348.411,78.763z"/>
					</g>
					<g>
						<path style="fill:#332433;" d="M336.701,89.993c-0.105-0.072-0.232-0.103-0.344-0.162c-0.216-0.114-0.367-0.326-0.577-0.451
							c-0.47-0.278-1.24,0.328-0.325,0.447c0.169,0.022,0.327,0.12,0.422,0.263c0.045,0.068,0.079,0.148,0.149,0.19
							c0.059,0.036,0.131,0.037,0.2,0.037c0.205,0,0.411,0,0.617,0C336.887,90.198,336.806,90.064,336.701,89.993z"/>
					</g>
					<g>
						<path style="fill:#332433;" d="M338.727,90.238c-0.309-0.135-0.639-0.223-0.975-0.26c-0.019,0.065-0.038,0.13-0.057,0.196
							l-0.084-0.002c-0.102,0.034-0.094,0.199-0.005,0.259c0.088,0.061,0.208,0.044,0.31,0.011c0.102-0.033,0.204-0.079,0.311-0.07
							c0.119,0.01,0.226,0.088,0.345,0.092C338.692,90.468,338.818,90.316,338.727,90.238z"/>
					</g>
				</g>
			</g>
			<g>
				<g>
					<path style="fill:#243B6F;" d="M313.909,68.774c-4.808,4.808-12.603,4.808-17.411,0s-4.808-12.603,0-17.411
						c4.808-4.808,12.603-4.808,17.411,0C318.717,56.171,318.717,63.966,313.909,68.774z"/>
				</g>
				<g>
					
						<rect x="292.535" y="64.055" transform="matrix(0.7071 0.7071 -0.7071 0.7071 136.4543 -187.1434)" style="fill:#243B6F;" width="3.189" height="14.177"/>
				</g>
				<g>
					<circle style="fill:#D7D3EA;" cx="305.204" cy="60.069" r="9.472"/>
				</g>
				<g>
					
						<rect x="283.125" y="70.863" transform="matrix(0.7071 0.7071 -0.7071 0.7071 139.6145 -179.5141)" style="fill:#CE8E28;" width="6.75" height="15.82"/>
				</g>
				<g>
					<g>
						<path style="fill:#FFFFFF;" d="M300.815,57.153c0,2.357,0,4.714,0,7.071c0,0.643,1,0.644,1,0c0-2.357,0-4.714,0-7.071
							C301.815,56.51,300.815,56.509,300.815,57.153L300.815,57.153z"/>
					</g>
				</g>
				<g>
					<g>
						<path style="fill:#FFFFFF;" d="M305.588,54.855c0,3.536,0,7.071,0,10.607c0,0.644,1,0.645,1,0c0-3.535,0-7.071,0-10.607
							C306.588,54.212,305.588,54.211,305.588,54.855L305.588,54.855z"/>
					</g>
				</g>
				<g>
					<g>
						<path style="fill:#FFFFFF;" d="M308.77,58.391c0,1.532,0,3.064,0,4.596c0,0.643,1,0.645,1,0c0-1.532,0-3.064,0-4.596
							C309.77,57.747,308.77,57.746,308.77,58.391L308.77,58.391z"/>
					</g>
				</g>
			</g>
			<g>
				<g>
					<path style="fill:#DD612A;" d="M354.364,32.862h-19.92c-2.802,0-5.073,2.271-5.073,5.073v16.132
						c0,2.802,2.271,5.073,5.073,5.073h19.92c2.802,0,5.073-2.271,5.073-5.073V37.935C359.437,35.133,357.166,32.862,354.364,32.862
						z"/>
				</g>
				<g>
					<polygon style="fill:#FFFFFF;" points="338.395,52.866 338.395,38.707 352.273,45.786 					"/>
				</g>
			</g>
			<g>
				<g>
					<path style="fill:#243B6F;" d="M403.159,46.001c-12.855,0-23.276,7.957-23.276,17.773c0,5.901,3.77,11.128,9.567,14.361
						c-0.22,2.318-1.284,6.114-5.459,9.676c0,0,9.649,1.775,17.013-6.342c0.71,0.05,1.428,0.079,2.155,0.079
						c12.855,0,23.276-7.957,23.276-17.773C426.435,53.959,416.014,46.001,403.159,46.001z"/>
				</g>
				<g>
					<g>
						<path style="fill:#DD612A;" d="M418.481,62.158v10.224h-8.741V61.075c0-0.275-0.055-0.539-0.16-0.784
							c0.37-0.175,0.789-0.275,1.238-0.275h0.879v-0.938c-0.958-0.569-1.598-1.612-1.598-2.811c0-1.812,1.468-3.28,3.28-3.28
							c1.812,0,3.28,1.468,3.28,3.28c0,1.198-0.644,2.242-1.598,2.811v0.938h0.874C417.343,60.016,418.481,60.975,418.481,62.158z"
							/>
					</g>
					<g>
						<path style="fill:#CE8E28;" d="M408.741,61.075v11.307h-11.282V61.075c0-1.313,1.258-2.371,2.811-2.371h0.968v-1.038
							c-1.058-0.634-1.767-1.787-1.767-3.105c0-2.007,1.622-3.629,3.629-3.629c2.002,0,3.629,1.622,3.629,3.629
							c0,1.318-0.714,2.471-1.767,3.105v1.038h0.969c1.228,0,2.266,0.659,2.651,1.588C408.686,60.535,408.741,60.8,408.741,61.075z"
							/>
					</g>
					<g>
						<path style="fill:#FFFFFF;" d="M396.461,61.269v11.113h-8.187v-9.395c0-1.088,1.048-1.972,2.336-1.972h0.804v-0.859
							c-0.874-0.529-1.468-1.488-1.468-2.586c0-1.662,1.353-3.01,3.015-3.01c1.667,0,3.015,1.348,3.015,3.01
							c0,1.098-0.589,2.057-1.468,2.586v0.859h0.804C395.732,61.015,396.121,61.105,396.461,61.269z"/>
					</g>
				</g>
			</g>
		</g>
		<g>
			<g>
				<circle style="fill:#FFFFFF;" cx="214.944" cy="74.52" r="46.125"/>
			</g>
			<g>
				<g>
					<path style="fill:#CE8E28;" d="M213.09,50.347l-49.97,15.324c-1.322,0.406-2.066,1.806-1.66,3.129l10.286,33.542
						c0.406,1.322,1.806,2.066,3.129,1.66l49.97-15.324c1.322-0.406,2.066-1.806,1.66-3.129l-10.286-33.542
						C215.813,50.685,214.413,49.942,213.09,50.347z"/>
				</g>
				<g>
					<g>
						<path style="fill:#243B6F;" d="M164.317,68.327c10.552,5.531,21.104,11.062,31.656,16.593
							c0.236,0.124,0.547,0.065,0.684-0.179c5.915-10.581,11.83-21.162,17.745-31.743c0.314-0.562-0.549-1.067-0.863-0.505
							c-5.915,10.581-11.83,21.162-17.745,31.743c0.228-0.06,0.456-0.12,0.684-0.179c-10.552-5.531-21.104-11.062-31.656-16.593
							C164.252,67.165,163.746,68.028,164.317,68.327L164.317,68.327z"/>
					</g>
				</g>
				<g>
					<g>
						<path style="fill:#243B6F;" d="M175.353,101.904c3.485-7.6,7.171-15.132,11.032-22.548c0.297-0.57-0.566-1.076-0.863-0.505
							c-3.861,7.416-7.547,14.948-11.032,22.548C174.223,101.98,175.085,102.489,175.353,101.904L175.353,101.904z"/>
					</g>
				</g>
				<g>
					<g>
						<path style="fill:#243B6F;" d="M201.617,74.826c6.814,3.756,13.403,7.957,20.36,11.448c0.574,0.288,1.081-0.575,0.505-0.864
							c-6.957-3.491-13.547-7.692-20.36-11.448C201.557,73.651,201.052,74.515,201.617,74.826L201.617,74.826z"/>
					</g>
				</g>
			</g>
			<g>
				<g>
					<path style="fill:#DD612A;" d="M262.855,47.321l-29.344-7.873c-0.777-0.208-1.575,0.252-1.783,1.029l-5.285,19.697
						c-0.208,0.777,0.252,1.575,1.029,1.783l29.344,7.873c0.777,0.208,1.575-0.252,1.783-1.029l5.285-19.697
						C264.093,48.328,263.632,47.529,262.855,47.321z"/>
				</g>
				<g>
					<g>
						<path style="fill:#FFFFFF;" d="M233.107,41.243c3.491,5.981,6.982,11.962,10.473,17.943c0.139,0.238,0.447,0.309,0.684,0.179
							c6.179-3.387,12.358-6.773,18.538-10.16c0.564-0.309,0.06-1.173-0.505-0.863c-6.179,3.387-12.358,6.773-18.538,10.16
							c0.228,0.06,0.456,0.12,0.684,0.179c-3.491-5.981-6.982-11.962-10.473-17.943C233.646,40.183,232.782,40.686,233.107,41.243
							L233.107,41.243z"/>
					</g>
				</g>
				<g>
					<g>
						<path style="fill:#FFFFFF;" d="M228.473,61.246c4.065-2.665,8.204-5.237,12.393-7.702c0.554-0.326,0.052-1.191-0.505-0.864
							c-4.189,2.466-8.327,5.038-12.393,7.702C227.432,60.734,227.932,61.6,228.473,61.246L228.473,61.246z"/>
					</g>
				</g>
				<g>
					<g>
						<path style="fill:#FFFFFF;" d="M249.475,55.956c2.193,3.957,4.158,8.049,6.496,11.923c0.332,0.55,1.197,0.048,0.863-0.505
							c-2.339-3.874-4.304-7.966-6.496-11.923C250.026,54.888,249.162,55.392,249.475,55.956L249.475,55.956z"/>
					</g>
				</g>
			</g>
		</g>
		<g>
			<g>
				<g>
					<path style="fill:#332433;" d="M197.006,214.004c-5.902,10.079-5.733,23.408,0.521,33.272
						c2.198,3.466,2.225,7.641,1.806,11.724c-1.248,12.151-11.479,19.324-10.389,30.207c1.169,11.676,15.426,19.339,15.182,31.071
						c-0.032,1.558-0.321,3.197,0.318,4.618c0.378,0.843,1.048,1.516,1.726,2.143c7.451,6.888,17.516,10.434,27.595,11.606
						c10.079,1.172,20.275,0.141,30.345-1.111c6.605-0.821,13.301-1.765,19.386-4.462c6.086-2.697,11.58-7.407,13.742-13.703
						c2.236-6.513,0.646-13.747-2.035-20.09c-2.682-6.342-6.423-12.221-8.732-18.708c-2.259-6.348-3.088-13.199-2.409-19.903
						c0.716-7.067,3.001-14.605-0.151-20.97c-0.959-1.936-2.369-3.611-3.46-5.476c-3.368-5.754-3.459-12.773-5.033-19.251
						c-3.163-13.024-12.536-25.524-25.441-29.141C227.253,179.462,209.131,193.298,197.006,214.004z"/>
				</g>
				<g>
					<g>
						<g>
							<path style="fill:#EE987E;" d="M396.83,212.505c0.25-1.152,3.132-4.929,3.752-0.353c-0.98,11.113-0.696,11.348-2.029,21.552
								c5.622-2.451,6.373,5.521,6.373,5.521c4.555-0.893,3.901,4.22,3.901,4.22c2.755-1.395,3.278,2.104,3.432,3.789
								c0.427,4.658,0.349,3.843-2.001,7.386c-2.369,3.57-3.627,6.322-6.082,7.764c-6.062,3.562-9.031,17.063-10.789,24.104
								c-0.776,3.107-9.937-0.616-10.271-0.547c-0.56,0.115-5.264-6.4-5.003-6.91c2.238-4.374,6.784-9.24,8.576-17.461
								c1.001-4.596-0.815-12.894-0.329-17.569c0.531-5.11,3.279-3.794,4.353-8.816C392.251,227.981,394.942,221.204,396.83,212.505
								z"/>
						</g>
						<g>
							<g>
								<path style="fill:#C66D5C;" d="M391.443,242.319c1.394-0.157,2.515-0.82,3.962-0.669c1.218,0.127,1.637,0.135,2.554,1.026
									c0.781,0.759,1.487,1.593,2.284,2.34c0.88,0.824,2.257,1.561,2.985,2.507c0.608,0.791,1.009,0.136,0.002,0.827
									c-0.783,0.537-1.919,0.799-2.852,0.826c-1.569,0.046-2.385-0.781-3.575-1.701c-0.462-0.358-1.306-1.28-1.946-1.214
									c-0.546,0.057-0.47,0.193-0.754,0.571c-0.046,0.299-0.054,0.6-0.025,0.904c-0.048,0.839-0.253,1.637-0.616,2.394
									c-0.586,1.155-1.516,2.038-2.861,2.159c-0.636,0.057-0.642,1.058,0,1c1.459-0.131,2.617-0.886,3.418-2.121
									c0.49-0.754,0.875-1.738,0.971-2.634c-0.037,0.347,0.097-1.379-0.116-1.224c0.075-0.055,1.375,0.989,1.221,0.871
									c0.952,0.728,1.907,1.728,3.115,1.975c1.573,0.322,3.812-0.25,5.016-1.309c0.675-0.594,0.805-0.763,0.415-1.46
									c-0.639-1.142-2.735-2.184-3.691-3.079c-1.358-1.272-2.305-3.106-4.193-3.48c-0.707-0.14-1.516-0.266-2.233-0.253
									c-1.126,0.021-1.947,0.617-3.081,0.744C390.81,241.391,390.803,242.391,391.443,242.319L391.443,242.319z"/>
							</g>
						</g>
						<g>
							<g>
								<path style="fill:#C66D5C;" d="M398.111,236.858c-0.379,1.452-1.107,2.713-2.177,3.765c-0.46,0.452,0.248,1.159,0.707,0.707
									c1.187-1.167,2.015-2.596,2.435-4.207C399.238,236.501,398.273,236.235,398.111,236.858L398.111,236.858z"/>
							</g>
						</g>
						<g>
							<g>
								<path style="fill:#C66D5C;" d="M403.198,240.176c-0.348,1.519-1.454,3.257-2.712,4.184
									c-0.513,0.378-0.014,1.246,0.505,0.863c1.474-1.086,2.761-2.992,3.172-4.781
									C404.306,239.816,403.342,239.548,403.198,240.176L403.198,240.176z"/>
							</g>
						</g>
						<g>
							<g>
								<path style="fill:#C66D5C;" d="M408.52,250.341c-0.566,1.126-1.265,2.213-2.193,3.078c-0.537,0.5-1.243,1.051-2.017,0.867
									c-0.787-0.187-1.216-1.072-0.874-1.831c0.263-0.582-0.599-1.091-0.864-0.505c-0.647,1.432,0.168,3.321,1.874,3.395
									c2.301,0.1,4.051-2.738,4.937-4.5C409.672,250.272,408.809,249.765,408.52,250.341L408.52,250.341z"/>
							</g>
						</g>
						<g>
							<g>
								<path style="fill:#C66D5C;" d="M407.252,245.48c-0.946,1.34-1.893,2.681-2.839,4.021c-0.467,0.662-0.911,1.38-1.461,1.977
									c-0.825,0.895-3.935,2.508-3.773-0.287c0.037-0.643-0.963-0.641-1,0c-0.125,2.168,2.148,3.041,3.916,2.207
									c1.149-0.542,1.894-1.582,2.615-2.588c1.147-1.6,2.271-3.217,3.407-4.825C408.487,245.458,407.621,244.958,407.252,245.48
									L407.252,245.48z"/>
							</g>
						</g>
					</g>
					<g>
						<path style="fill:#FFFFFF;" d="M379.25,270.624L383,259c0,0,17.169,10.059,19.209,10.53l-4.701,10.97L379.25,270.624z"/>
					</g>
					<g>
						<path style="fill:#243B6F;" d="M348.262,318c0,0,22.626-33.935,31.325-54.663c6.139,5.318,14.279,9.478,21.933,12.195
							c-9.083,27.114-23.503,71.382-35.909,76.344c-12.705,5.081-60.503-4.487-76.111-12.875
							c-2.864-1.539-3.506-40.582-0.462-49.714C302.12,296.115,338.245,316.21,348.262,318z"/>
					</g>
					<g>
						<g>
							<path style="fill:#162849;" d="M347.5,323.5c0,3.667,0,7.333,0,11c0,0.643,1,0.645,1,0c0-3.667,0-7.333,0-11
								C348.5,322.857,347.5,322.855,347.5,323.5L347.5,323.5z"/>
						</g>
					</g>
					<g>
						<g>
							<path style="fill:#162849;" d="M350.548,323.007c-0.525,4.713,0.475,9.25,2.906,13.318c0.33,0.552,1.195,0.05,0.863-0.505
								c-2.352-3.935-3.276-8.259-2.769-12.813C351.619,322.368,350.619,322.373,350.548,323.007L350.548,323.007z"/>
						</g>
					</g>
				</g>
				<g>
					<g>
						<g>
							<path style="fill:#EE987E;" d="M87.965,289.452c-0.357-1.123-3.58-4.614-3.768,0c2.017,10.972,1.757,11.233,4.04,21.267
								c-5.827-1.913-5.827,6.094-5.827,6.094c-4.619-0.463-3.489,4.567-3.489,4.567c-2.873-1.13-3.066,2.401-3.062,4.094
								c0.012,4.678,0.012,3.858,2.685,7.166c2.693,3.333,4.204,5.954,6.783,7.16c6.369,2.978,10.59,16.141,13.001,22.987
								c1.064,3.021,9.836-1.544,10.174-1.507c0.569,0.062,4.641-6.865,4.334-7.348c-2.638-4.145-7.62-8.563-10.174-16.581
								c-1.428-4.482-0.397-12.913-1.319-17.523c-1.008-5.038-3.62-3.47-5.16-8.369C93.974,304.431,90.66,297.936,87.965,289.452z"
								/>
						</g>
						<g>
							<g>
								<path style="fill:#C66D5C;" d="M96.076,317.633c-1.005-0.018-1.888-0.529-2.888-0.489c-0.725,0.03-1.529,0.24-2.227,0.426
									c-2.058,0.549-2.696,2.325-4.085,3.897c-0.917,1.038-2.76,2.184-3.386,3.412c-0.364,0.714-0.23,0.894,0.477,1.427
									c1.248,0.94,3.331,1.228,4.83,0.909c1.355-0.287,2.224-1.367,3.211-2.278c0.225-0.208,0.61-0.757,0.897-0.805
									c0.615-0.102-0.102-0.138,0.121,0.318c0.489,1.002,0.48,1.965,1.157,2.941c0.893,1.288,2.179,2.091,3.758,2.084
									c0.643-0.003,0.645-1.003,0-1c-1.345,0.006-2.356-0.728-3.072-1.84c-0.591-0.918-0.426-2.467-0.958-3.218
									c-0.257-0.363-0.25-0.557-0.774-0.557c-0.638-0.001-1.436,1.001-1.836,1.371c-1.065,0.983-1.841,1.999-3.384,2.061
									c-0.923,0.037-2.129-0.009-2.922-0.532c-1.035-0.681-0.521-0.162-0.055-0.898c0.741-1.171,2.218-2.176,3.128-3.249
									c1.153-1.36,1.829-2.778,3.644-3.192c1.601-0.365,2.805,0.182,4.364,0.211C96.72,318.645,96.72,317.645,96.076,317.633
									L96.076,317.633z"/>
							</g>
						</g>
						<g>
							<g>
								<path style="fill:#C66D5C;" d="M88.022,314.129c0.566,1.565,1.503,2.923,2.798,3.973c0.496,0.402,1.207-0.302,0.707-0.707
									c-1.158-0.939-2.032-2.126-2.541-3.532C88.769,313.263,87.803,313.522,88.022,314.129L88.022,314.129z"/>
							</g>
						</g>
						<g>
							<g>
								<path style="fill:#C66D5C;" d="M83.269,317.909c0.569,1.733,2.012,3.55,3.579,4.486c0.554,0.331,1.057-0.533,0.505-0.863
									c-1.34-0.801-2.632-2.403-3.119-3.888C84.033,317.034,83.067,317.295,83.269,317.909L83.269,317.909z"/>
							</g>
						</g>
						<g>
							<g>
								<path style="fill:#C66D5C;" d="M79.035,328.761c1.039,1.658,2.963,4.251,5.205,4.077c1.728-0.134,2.541-2.115,1.73-3.537
									c-0.319-0.559-1.183-0.056-0.863,0.505c0.307,0.539,0.249,1.271-0.215,1.717c-0.7,0.674-1.775,0.125-2.41-0.347
									c-1.051-0.781-1.892-1.818-2.583-2.92C79.557,327.713,78.692,328.214,79.035,328.761L79.035,328.761z"/>
							</g>
						</g>
						<g>
							<g>
								<path style="fill:#C66D5C;" d="M79.92,323.904c1.339,1.562,2.661,3.141,4.019,4.687c0.808,0.92,1.719,1.869,2.95,2.186
									c1.875,0.482,3.648-0.78,3.345-2.769c-0.097-0.634-1.061-0.365-0.964,0.266c0.357,2.336-2.744,1.454-3.711,0.585
									c-0.488-0.438-0.901-0.962-1.327-1.457c-1.203-1.4-2.402-2.803-3.604-4.204C80.207,322.708,79.503,323.418,79.92,323.904
									L79.92,323.904z"/>
							</g>
						</g>
					</g>
					<g>
						<polygon style="fill:#FFFFFF;" points="111.5,344.75 106.75,336.077 89.086,347 96.986,357.75 						"/>
					</g>
					<g>
						<path style="fill:#243B6F;" d="M155.167,372c-10.52-8.21-23.086-10.594-44.833-32c-7.288,4.684-13.347,7.833-19.766,12.333
							c32.319,47.612,56.506,61.163,67.002,61.213c21.333,0.1,49.469-46.415,48.363-74.546
							c-0.399-10.151-6.728-51.759-18.104-42.165C182.144,301.629,171.111,329.119,167,340
							C160.954,356.002,156.749,373.235,155.167,372z"/>
					</g>
					<g>
						<g>
							<path style="fill:#162849;" d="M158.152,377.19c2.136,2.856,4.271,5.713,6.407,8.569c0.381,0.509,1.249,0.011,0.863-0.505
								c-2.136-2.856-4.271-5.713-6.407-8.569C158.635,376.176,157.766,376.673,158.152,377.19L158.152,377.19z"/>
						</g>
					</g>
					<g>
						<g>
							<path style="fill:#162849;" d="M161.646,374.854c2.333,2.333,4.667,4.667,7,7c0.456,0.456,1.163-0.251,0.707-0.707
								c-2.333-2.333-4.667-4.667-7-7C161.898,373.691,161.191,374.398,161.646,374.854L161.646,374.854z"/>
						</g>
					</g>
				</g>
				<g>
					<g>
						<path style="fill:#243B6F;" d="M187.829,296.835c-2.717,2.053,15.414,61.182,19.508,77.003
							c1.556,6.014,6.369,16.617,6.451,22.828c0.138,10.441-1.889,15.537-5.502,25.333c-6.325,17.147-15.662,30.236-19.727,48.054
							c42.692-0.212,92.75,0.491,135.442,0.279c-3.167-19.914-6-21.333-15.333-44c-2.33-5.659-15.059-26.59-14.333-32.667
							c0.75-6.282,8.557-40.402,7.475-46.636c-6.404-36.898-7.476-55.495-12.77-57.745c-7.35-3.124-5.08-3.429-21.612-9.451
							c-13.708-4.994-29.294-7.313-43.723-4.31C211.63,278.038,198.11,289.066,187.829,296.835z"/>
					</g>
					<g>
						<g>
							<path style="fill:#2974B8;" d="M261.214,338.856c2.966,10.707,4.401,21.79,4.119,32.902
								c-0.254,10.019-2.44,19.931-2.033,29.972c0.558,13.765,2.469,27.475,3.45,41.214c0.534,7.48,1.052,15.061,0.511,22.556
								c-0.046,0.642,0.954,0.639,1,0c1.039-14.384-0.969-29.109-2.308-43.413c-0.596-6.364-1.262-12.734-1.594-19.119
								c-0.495-9.522,1.387-18.869,1.866-28.347c0.613-12.147-0.802-24.316-4.047-36.03
								C262.007,337.971,261.041,338.234,261.214,338.856L261.214,338.856z"/>
						</g>
					</g>
					<g>
						<path style="fill:#2974B8;" d="M261.398,350.696c0,2.089-1.693,3.782-3.782,3.782c-2.089,0-3.782-1.693-3.782-3.782
							c0-2.089,1.693-3.782,3.782-3.782C259.704,346.914,261.398,348.607,261.398,350.696z"/>
					</g>
					<g>
						<circle style="fill:#2974B8;" cx="256.802" cy="396.5" r="3.782"/>
					</g>
					<g>
						<path style="fill:#2974B8;" d="M261.398,442.304c0,2.089-1.693,3.782-3.782,3.782c-2.089,0-3.782-1.693-3.782-3.782
							c0-2.089,1.693-3.782,3.782-3.782C259.704,438.522,261.398,440.216,261.398,442.304z"/>
					</g>
					<g>
						<g>
							<path style="fill:#162849;" d="M202.603,353.496c0.053-12.245-2.772-24.258-8.259-35.204
								c-0.288-0.575-1.151-0.07-0.863,0.505c5.409,10.79,8.175,22.63,8.123,34.699C201.601,354.139,202.601,354.14,202.603,353.496
								L202.603,353.496z"/>
						</g>
					</g>
					<g>
						<g>
							<path style="fill:#162849;" d="M299.849,339.284c-4.497-10.408-7.76-21.276-9.768-32.434
								c-0.114-0.632-1.078-0.364-0.964,0.266c2.024,11.248,5.337,22.182,9.869,32.673
								C299.24,340.378,300.102,339.869,299.849,339.284L299.849,339.284z"/>
						</g>
					</g>
					<g>
						<g>
							<path style="fill:#162849;" d="M218.424,366.337c8.805,3.318,18.785,1.614,26.044-4.349c0.498-0.409-0.213-1.113-0.707-0.707
								c-6.995,5.746-16.615,7.278-25.071,4.091C218.087,365.146,217.827,366.112,218.424,366.337L218.424,366.337z"/>
						</g>
					</g>
					<g>
						<g>
							<path style="fill:#162849;" d="M274.387,362.902c7.059,1.653,14.272,1.558,21.283-0.286c0.622-0.163,0.358-1.128-0.266-0.964
								c-6.846,1.801-13.859,1.9-20.751,0.286C274.026,361.792,273.759,362.755,274.387,362.902L274.387,362.902z"/>
						</g>
					</g>
					<g>
						<g>
							<path style="fill:#162849;" d="M219.161,400.63c4.976-0.957,9.952-1.915,14.928-2.872c0.631-0.121,0.364-1.086-0.266-0.964
								c-4.976,0.957-9.952,1.915-14.928,2.872C218.264,399.787,218.531,400.751,219.161,400.63L219.161,400.63z"/>
						</g>
					</g>
					<g>
						<g>
							<path style="fill:#162849;" d="M219.833,403.118c3.519,0.848,7.071,1.458,10.671,1.842c0.639,0.068,0.634-0.932,0-1
								c-3.511-0.374-6.972-0.979-10.405-1.806C219.474,402.003,219.207,402.967,219.833,403.118L219.833,403.118z"/>
						</g>
					</g>
					<g>
						<g>
							<path style="fill:#162849;" d="M218.367,407.482c2.526,0.701,4.819,1.833,6.92,3.398c0.516,0.385,1.016-0.483,0.505-0.863
								c-2.164-1.612-4.56-2.777-7.159-3.499C218.012,406.345,217.747,407.31,218.367,407.482L218.367,407.482z"/>
						</g>
					</g>
					<g>
						<g>
							<path style="fill:#162849;" d="M281,391.495c2.675,0.016,5.119,0.82,7.295,2.374c0.525,0.375,1.025-0.492,0.505-0.863
								c-2.309-1.649-4.964-2.494-7.799-2.51C280.356,390.492,280.356,391.492,281,391.495L281,391.495z"/>
						</g>
					</g>
					<g>
						<g>
							<path style="fill:#162849;" d="M282.628,397.965c1.769-0.482,3.547-0.628,5.371-0.455c0.64,0.061,0.636-0.94,0-1
								c-1.912-0.181-3.785-0.014-5.637,0.491C281.742,397.169,282.005,398.134,282.628,397.965L282.628,397.965z"/>
						</g>
					</g>
					<g>
						<g>
							<path style="fill:#162849;" d="M285.759,403.445c1.001-0.499,2.001-0.997,3.002-1.496c0.576-0.287,0.07-1.15-0.505-0.863
								c-1.001,0.499-2.001,0.997-3.002,1.496C284.678,402.868,285.184,403.731,285.759,403.445L285.759,403.445z"/>
						</g>
					</g>
				</g>
				<g>
					<g>
						<path style="fill:#2974B8;" d="M211.657,287.532c-2.475,6.87-2.336,15.468-2.336,23.968
							c3.318-3.211,10.073-3.991,14.679-3.667c-0.432,3.469-3.288,5.833-4.167,9.333c16.545,2.903,26.222,7.299,40.882,15.5
							c4.728-13.667,8.404-16.9,15.454-25c-2.269-1.995-4.13-3.962-6.399-5.956c1.128-3.274,11.397-5.911,11.397-5.911
							c-4.833-12.074-19.442-24.439-29.667-26.192C233.728,266.56,217.944,270.08,211.657,287.532z"/>
					</g>
					<g>
						<path style="fill:#E08670;" d="M263.81,288.65c-0.04,4.62-0.2,9.73-0.53,14.96c-0.55,9.09-1.59,18.52-3.28,26.38
							c-6.02-5.32-15.5-14.84-23.46-23.44c-7.21-7.81-13.17-14.88-14.16-17.4c-0.58-1.48-1.02-3.13-0.51-4.64
							c0.38-1.11,3.43-2.13,3.96-3.18c1.8-3.54-7.16-40.86-7.21-40.91c9.62,8.28,22.17,13.1,34.86,13.38c1,7.8,2.38,15.54,4.14,23.2
							c0.55,2.4,2.95,3.14,4.88,4.67C263.28,282.29,263.82,287.51,263.81,288.65z"/>
					</g>
					<g>
						<path style="fill:#EE987E;" d="M236.919,262.433c3.966,2.478,9.867,5.09,14.543,5.097
							c7.538,0.011,15.369-15.647,16.113-19.858c1.324-7.494,2.617-39.372-7.655-47.377c-12.42-9.68-31.728-5.625-35.92-3.795
							C190.481,211.13,218.191,250.733,236.919,262.433z"/>
					</g>
					<g>
						<path style="fill:#332433;" d="M247.24,203.133c4.048,4.026,4.623,6.463,9.284,9.76c8.038,5.687,9.517,21.81,11.607,25.329
							c3.177-11.752,1.824-26.065-3.192-37.158c-2.052-4.537-12.211-13.362-24.753-13.065c-16.389,0.389-29.109,8.752-31.901,14
							c-2.594,4.876-2.876,6.17-2.905,11.692c-0.04,7.671,0.462,15.653,4.162,22.373c1.906,3.461,4.578,6.428,7.226,9.361
							c1.628,1.803-6.242-14.441,8.243-20.648C235.208,220.408,243.835,214.334,247.24,203.133z"/>
					</g>
					<g>
						<path style="fill:#EE987E;" d="M219.231,235.933c0,0-2.512-5.579-4.567-6.912c-2.055-1.333-5.173-1.371-6.649,0.585
							c-0.661,0.875-0.896,1.996-1.024,3.085c-0.392,3.339,0.096,6.838,1.76,9.76c1.664,2.921,4.673,4.771,7.9,5.714
							C222.935,250,220.337,239.289,219.231,235.933z"/>
					</g>
					<g>
						<path style="fill:#EE987E;" d="M272.987,228.039c-0.413-1.561-0.732-2.575-1.924-3.664c-1.145-1.045-3.322-1.129-4.516-0.14
							c-1.194,0.988-1.56,3.721-1.56,3.721c0.148,3.585,0.476,7.163,0.985,10.715c0.186,1.296,0.46,2.708,1.468,3.544
							c1.65,1.369,3.404,0.086,4.435-1.794C272.906,238.541,274.5,233.75,272.987,228.039z"/>
					</g>
					<g>
						<g>
							<path style="fill:#332433;" d="M227.752,227.866c3.027-2.059,6.527-2.801,10.124-2.087c0.628,0.125,0.897-0.839,0.266-0.964
								c-3.851-0.764-7.644-0.023-10.894,2.188C226.718,227.363,227.217,228.23,227.752,227.866L227.752,227.866z"/>
						</g>
					</g>
					<g>
						<g>
							<path style="fill:#332433;" d="M251.262,224.117c2.863-1.357,5.935-1.668,9.017-0.932c0.626,0.149,0.893-0.815,0.266-0.964
								c-3.357-0.801-6.669-0.445-9.788,1.033C250.176,223.529,250.683,224.392,251.262,224.117L251.262,224.117z"/>
						</g>
					</g>
					<g>
						<g>
							<path style="fill:#332433;" d="M245.568,230.901c0.912,2.965,1.949,6.206,4.572,8.121c0.979,0.715,3.832,1.312,3.799,2.732
								c-0.034,1.469-2.668,1.6-3.474,2.536c-0.418,0.486,0.286,1.196,0.707,0.707c0.958-1.113,2.709-0.66,3.474-2.062
								c0.469-0.86,0.372-2.098-0.27-2.848c-1.006-1.175-2.893-1.172-4.081-2.216c-2.113-1.857-2.964-4.638-3.764-7.237
								C246.343,230.022,245.378,230.283,245.568,230.901L245.568,230.901z"/>
						</g>
					</g>
					<g>
						<path style="fill:#FFFFFF;" d="M240.966,248.374c0,0,10.081,2.303,15.557-0.702c0,0,2.068,9.328-5.061,9.328
							C244.333,257,240.966,248.374,240.966,248.374z"/>
					</g>
					<g>
						<g>
							<path style="fill:#C66D5C;" d="M215.307,232.911c-2.26-2.991-5.742-2.477-6.389,1.422c-0.475,2.86,0.911,5.721,2.566,7.959
								c1.431,1.935,3.392,4.323,6.046,3.616c0.621-0.166,0.358-1.13-0.266-0.964c-3.425,0.913-6.685-5.381-7.253-7.874
								c-0.394-1.728-0.292-4.511,1.668-4.979c1.104-0.264,2.099,0.445,2.764,1.326
								C214.826,233.923,215.695,233.425,215.307,232.911L215.307,232.911z"/>
						</g>
					</g>
					<g>
						<g>
							<path style="fill:#C66D5C;" d="M265.253,230.901c0.829,3.189,1.269,6.45,2.025,9.652c0.148,0.626,1.112,0.361,0.964-0.266
								c-0.757-3.203-1.196-6.463-2.025-9.652C266.056,230.012,265.091,230.276,265.253,230.901L265.253,230.901z"/>
						</g>
					</g>
					<g>
						<g>
							<path style="fill:#C66D5C;" d="M267.232,228.84c0.198-3.147,2.284-1.449,2.847-0.152c0.478,1.101,0.626,2.358,0.702,3.544
								c0.151,2.353-0.138,4.764-1.014,6.959c-0.238,0.598,0.728,0.857,0.964,0.266c1.341-3.364,1.931-8.795-0.143-12.015
								c-1.614-2.507-4.192-1.23-4.357,1.397C266.192,229.483,267.192,229.481,267.232,228.84L267.232,228.84z"/>
						</g>
					</g>
					<g>
						<ellipse style="fill:#332433;" cx="234.128" cy="232.956" rx="1.374" ry="3"/>
					</g>
					<g>
						<ellipse style="fill:#332433;" cx="255.428" cy="230.768" rx="1.374" ry="3"/>
					</g>
					<g>
						<g>
							<path style="fill:#C66D5C;" d="M231.665,295.177c2.974,0.004,5.947,0.137,8.919,0.211c3.199,0.079,5.942-0.432,7.691,2.995
								c0.293,0.573,1.156,0.068,0.863-0.505c-1.514-2.966-3.608-3.445-6.661-3.453c-3.605-0.011-7.207-0.244-10.813-0.248
								C231.022,294.176,231.021,295.176,231.665,295.177L231.665,295.177z"/>
						</g>
					</g>
					<g>
						<g>
							<path style="fill:#C66D5C;" d="M254.315,298.263c1.11-4.053,4.587-4.011,7.829-5.415c0.589-0.255,0.08-1.117-0.505-0.863
								c-1.613,0.698-3.397,0.884-4.97,1.699c-1.754,0.908-2.805,2.434-3.319,4.313
								C253.181,298.619,254.145,298.884,254.315,298.263L254.315,298.263z"/>
						</g>
					</g>
					<g>
						<path style="fill:#FFFFFF;" d="M263.28,303.61c-0.55,9.09-1.59,18.52-3.28,26.38c-6.02-5.32-15.5-14.84-23.46-23.44
							l17.63,2.28L263.28,303.61z"/>
					</g>
					<g>
						<ellipse style="fill:#E06865;" cx="231.003" cy="243.359" rx="3.858" ry="2.939"/>
					</g>
					<g>
						<path style="fill:#E06865;" d="M265.751,239.325c0,1.623-1.727,2.939-3.858,2.939c-2.131,0-3.858-1.316-3.858-2.939
							c0-1.623,1.728-2.939,3.858-2.939C264.024,236.386,265.751,237.702,265.751,239.325z"/>
					</g>
					<g>
						<g>
							<path style="fill:#4E384F;" d="M217.012,225.528c2.185-6.247,9.367-7.565,14.672-10.074
								c5.58-2.639,7.933-7.501,10.897-12.636c0.322-0.558-0.542-1.063-0.863-0.505c-1.758,3.047-3.331,6.633-5.835,9.146
								c-2.449,2.458-5.802,3.643-8.96,4.886c-4.508,1.774-9.171,4.044-10.875,8.916
								C215.835,225.871,216.801,226.133,217.012,225.528L217.012,225.528z"/>
						</g>
					</g>
					<g>
						<g>
							<path style="fill:#4E384F;" d="M213.138,220.013c0.153-2.651,3.178-5.267,5.025-6.904c1.929-1.708,4.044-3.188,6.131-4.694
								c3.536-2.551,6.982-5.191,9.503-8.801c0.369-0.529-0.497-1.029-0.863-0.505c-3.261,4.67-8.163,7.597-12.621,10.979
								c-2.948,2.236-7.939,5.855-8.175,9.924C212.101,220.656,213.101,220.654,213.138,220.013L213.138,220.013z"/>
						</g>
					</g>
					<g>
						<g>
							<path style="fill:#4E384F;" d="M208.564,214.423c1.33-5.373,7.632-7.652,11.04-11.597c3.496-4.047,7.882-9.407,13.773-9.259
								c0.644,0.016,0.643-0.984,0-1c-5.814-0.146-10.473,4.812-13.928,8.901c-2.173,2.572-4.701,4.36-7.326,6.422
								c-2.126,1.67-3.861,3.593-4.523,6.267C207.445,214.782,208.409,215.048,208.564,214.423L208.564,214.423z"/>
						</g>
					</g>
					<g>
						<g>
							<path style="fill:#4E384F;" d="M250.557,198.764c3.328,3.779,7.088,7.08,11.255,9.903c0.534,0.362,1.035-0.504,0.505-0.863
								c-4.1-2.778-7.781-6.031-11.053-9.747C250.838,197.574,250.133,198.283,250.557,198.764L250.557,198.764z"/>
						</g>
					</g>
					<g>
						<g>
							<path style="fill:#4E384F;" d="M252.496,192.599c4.896,2.507,8.98,6.102,12.061,10.66c0.358,0.53,1.225,0.03,0.863-0.505
								c-3.176-4.699-7.37-8.434-12.42-11.019C252.429,191.443,251.923,192.306,252.496,192.599L252.496,192.599z"/>
						</g>
					</g>
					<g>
						<g>
							<path style="fill:#4E384F;" d="M200.377,224.656c-2.033,2.993-2.92,6.572-2.335,10.166c0.73,4.488,3.865,8.445,5.471,12.662
								c0.227,0.595,1.194,0.337,0.964-0.266c-1.332-3.496-3.428-6.633-4.762-10.099c-1.554-4.038-0.885-8.41,1.526-11.958
								C201.603,224.627,200.737,224.126,200.377,224.656L200.377,224.656z"/>
						</g>
					</g>
					<g>
						<g>
							<path style="fill:#4E384F;" d="M205.845,256.999c0.736,7.393-1.708,14.626-6.819,20.026
								c-0.442,0.467,0.264,1.176,0.707,0.707c5.285-5.583,7.875-13.077,7.112-20.733
								C206.781,256.364,205.781,256.358,205.845,256.999L205.845,256.999z"/>
						</g>
					</g>
					<g>
						<g>
							<path style="fill:#4E384F;" d="M211.9,272.831c1.796-4.282,4.115-11.277,0.501-15.243c-0.434-0.477-1.14,0.232-0.707,0.707
								c3.302,3.623,0.88,10.363-0.758,14.27C210.687,273.158,211.654,273.417,211.9,272.831L211.9,272.831z"/>
						</g>
					</g>
					<g>
						<g>
							<path style="fill:#4E384F;" d="M219.808,268.664c0.306-3.089-0.176-6.059-1.382-8.913c-0.25-0.591-1.111-0.082-0.863,0.505
								c1.135,2.686,1.533,5.512,1.246,8.409C218.745,269.304,219.745,269.299,219.808,268.664L219.808,268.664z"/>
						</g>
					</g>
					<g>
						<g>
							<path style="fill:#4E384F;" d="M276.307,243.388c5.083,4.097,1.503,11.911,1.259,17.341
								c-0.258,5.753,0.83,11.45,3.035,16.758c0.243,0.586,1.211,0.329,0.964-0.266c-2.736-6.588-3.692-13.757-2.548-20.816
								c0.755-4.663,2.285-10.268-2.003-13.724C276.518,242.281,275.806,242.984,276.307,243.388L276.307,243.388z"/>
						</g>
					</g>
					<g>
						<g>
							<path style="fill:#4E384F;" d="M270.467,254.313c-0.898,7.271-1.627,15.011,2.3,21.568c0.33,0.551,1.195,0.049,0.863-0.505
								c-3.827-6.39-3.037-13.99-2.163-21.063C271.546,253.675,270.545,253.681,270.467,254.313L270.467,254.313z"/>
						</g>
					</g>
					<g>
						<g>
							<path style="fill:#4E384F;" d="M263.878,263.209c-0.668,2.432-0.611,4.907,0.183,7.302c0.202,0.608,1.168,0.347,0.964-0.266
								c-0.741-2.236-0.807-4.498-0.183-6.77C265.013,262.853,264.049,262.588,263.878,263.209L263.878,263.209z"/>
						</g>
					</g>
				</g>
			</g>
			<g>
				<rect x="71.667" y="465.5" style="fill:#6A8CAE;" width="356.667" height="9.384"/>
			</g>
		</g>
		<g>
			<g>
				<g>
					<path style="fill:#EE987E;" d="M324.499,108.983c0.337-1.129,3.5-4.675,3.768-0.065c-1.829,11.005-1.564,11.261-3.676,21.333
						c5.794-2.013,5.931,5.994,5.931,5.994c4.61-0.542,3.566,4.507,3.566,4.507c2.854-1.18,3.107,2.349,3.131,4.041
						c0.068,4.677,0.054,3.858-2.562,7.211c-2.636,3.378-4.101,6.025-6.659,7.275c-6.317,3.087-10.312,16.321-12.605,23.206
						c-1.012,3.038-9.861-1.376-10.199-1.333c-0.568,0.072-4.758-6.785-4.459-7.273c2.566-4.19,7.473-8.692,9.889-16.752
						c1.351-4.506,0.176-12.918,1.019-17.543c0.922-5.054,3.56-3.532,5.016-8.456C318.748,124.063,321.951,117.512,324.499,108.983z
						"/>
				</g>
				<g>
					<g>
						<path style="fill:#C66D5C;" d="M316.881,138.299c1.575-0.056,2.733-0.629,4.36-0.288c1.847,0.387,2.498,1.755,3.701,3.125
							c0.928,1.057,2.422,2.036,3.183,3.194c0.476,0.724,0.975,0.2-0.026,0.9c-0.776,0.543-1.992,0.606-2.911,0.586
							c-1.547-0.034-2.338-1.031-3.422-1.997c-0.408-0.364-1.219-1.349-1.857-1.343c-0.524,0.005-0.516,0.193-0.77,0.56
							c-0.476,0.687-0.367,2.367-0.901,3.235c-0.691,1.123-1.693,1.882-3.035,1.9c-0.643,0.008-0.645,1.008,0,1
							c1.469-0.019,2.667-0.718,3.553-1.887c0.674-0.889,0.889-1.809,1.214-2.852c-0.006,0.02,0.156-0.938-0.055-0.876
							c0.128-0.038,1.027,0.866,1.144,0.969c1.011,0.889,1.886,1.959,3.248,2.226c1.503,0.295,3.579-0.026,4.815-0.985
							c0.716-0.556,0.839-0.723,0.466-1.434c-0.631-1.203-2.529-2.352-3.444-3.353c-1.286-1.406-2.019-3.258-3.924-3.775
							c-0.698-0.189-1.487-0.364-2.209-0.413c-1.107-0.076-2.02,0.467-3.129,0.506C316.239,137.321,316.236,138.322,316.881,138.299
							L316.881,138.299z"/>
					</g>
				</g>
				<g>
					<g>
						<path style="fill:#C66D5C;" d="M323.898,133.4c-0.486,1.415-1.334,2.616-2.476,3.577c-0.493,0.415,0.217,1.119,0.707,0.707
							c1.276-1.073,2.193-2.444,2.733-4.018C325.072,133.056,324.106,132.794,323.898,133.4L323.898,133.4z"/>
					</g>
				</g>
				<g>
					<g>
						<path style="fill:#C66D5C;" d="M328.716,137.098c-0.464,1.494-1.719,3.118-3.047,3.945c-0.545,0.339-0.044,1.205,0.505,0.863
							c1.551-0.966,2.965-2.798,3.507-4.543C329.872,136.748,328.907,136.484,328.716,137.098L328.716,137.098z"/>
					</g>
				</g>
				<g>
					<g>
						<path style="fill:#C66D5C;" d="M333.234,147.637c-0.672,1.114-1.492,2.169-2.531,2.966c-0.599,0.459-1.414,0.923-2.153,0.537
							c-0.668-0.349-0.863-1.199-0.507-1.849c0.309-0.565-0.554-1.07-0.863-0.505c-0.787,1.437,0.045,3.399,1.778,3.513
							c2.241,0.147,4.13-2.486,5.139-4.157C334.431,147.589,333.566,147.086,333.234,147.637L333.234,147.637z"/>
					</g>
				</g>
				<g>
					<g>
						<path style="fill:#C66D5C;" d="M332.421,142.591c-1.177,1.422-2.352,2.845-3.531,4.265c-0.418,0.503-0.822,1.033-1.302,1.48
							c-0.945,0.881-4.046,1.836-3.729-0.507c0.085-0.629-0.878-0.902-0.964-0.266c-0.269,1.993,1.506,3.233,3.381,2.722
							c1.134-0.309,1.995-1.169,2.743-2.027c1.408-1.617,2.741-3.308,4.109-4.96C333.535,142.806,332.832,142.095,332.421,142.591
							L332.421,142.591z"/>
					</g>
				</g>
			</g>
			<g>
				<path style="fill:#FFFFFF;" d="M303.876,166.639l4.333-10.699c0,0,12.713,3.736,17.123,8.588l-3.948,9.225
					C321.383,173.753,307.055,164.977,303.876,166.639z"/>
			</g>
			<g>
				<path style="fill:#2974B8;" d="M304.566,160.926c0,0,14.132,4.848,20.249,10.333c0,0-3.489,15.277-6.73,18.288
					s-24.64-4.903-24.021-11.124C294.683,172.201,304.566,160.926,304.566,160.926z"/>
			</g>
		</g>
		<g>
			<g>
				<g>
					<path style="fill:#EE987E;" d="M117.303,145.264c-0.645-0.986-4.687-3.485-3.63,1.011c4.887,10.029,4.706,10.35,9.598,19.403
						c-6.127-0.28-3.979,7.434-3.979,7.434c-4.574,0.794-2.135,5.336-2.135,5.336c-3.071-0.318-2.309,3.136-1.851,4.765
						c1.266,4.503,1.047,3.714,4.509,6.183c3.488,2.488,5.647,4.608,8.455,5.077c6.935,1.16,14.532,12.708,18.691,18.656
						c1.835,2.625,9.061-4.126,9.397-4.182c0.565-0.093,2.629-7.859,2.203-8.242c-3.653-3.285-9.638-6.205-14.25-13.243
						c-2.578-3.934-3.847-12.333-5.972-16.527c-2.322-4.583-4.418-2.372-7.216-6.678
						C127.11,158.083,122.175,152.715,117.303,145.264z"/>
				</g>
				<g>
					<g>
						<path style="fill:#C66D5C;" d="M132.678,170.236c-0.972,0.251-1.957,0.007-2.912,0.303c-0.693,0.215-1.408,0.64-2.029,1.007
							c-1.827,1.08-1.984,2.967-2.891,4.846c-0.617,1.279-1.952,2.748-2.305,4.114c-0.215,0.83-0.156,0.949,0.796,1.331
							c1.438,0.576,3.485,0.29,4.847-0.393c1.26-0.633,1.814-1.908,2.531-3.072c0.13-0.211,0.381-0.871,0.587-0.938
							c0.372-0.12-0.019,0.056,0.264,0.184c0.129,0.059,0.667,1.176,0.793,1.346c0.384,0.518,0.826,0.986,1.346,1.37
							c1.179,0.869,2.527,1.213,3.946,0.811c0.618-0.175,0.355-1.14-0.266-0.964c-1.292,0.366-2.46-0.066-3.449-0.942
							c-0.822-0.729-1.072-2.255-1.789-2.844c-0.342-0.281-0.387-0.475-0.893-0.337c-0.494,0.134-0.925,1.043-1.158,1.404
							c-0.834,1.294-1.306,2.654-2.809,3.262c-0.415,0.168-3.583,0.872-3.841,0.206c-0.053-0.137,0.569-0.944,0.641-1.065
							c0.707-1.181,1.363-2.387,1.94-3.638c0.764-1.656,0.989-3.146,2.653-4.056c1.442-0.789,2.755-0.58,4.264-0.97
							C133.567,171.039,133.303,170.074,132.678,170.236L132.678,170.236z"/>
					</g>
				</g>
				<g>
					<g>
						<path style="fill:#C66D5C;" d="M123.976,169.016c0.964,1.355,2.228,2.415,3.758,3.078c0.584,0.253,1.094-0.608,0.505-0.863
							c-1.367-0.592-2.533-1.502-3.399-2.719C124.469,167.992,123.602,168.49,123.976,169.016L123.976,169.016z"/>
					</g>
				</g>
				<g>
					<g>
						<path style="fill:#C66D5C;" d="M120.41,173.933c1.016,1.518,2.885,2.88,4.648,3.365c0.621,0.171,0.887-0.794,0.266-0.964
							c-1.508-0.414-3.18-1.605-4.051-2.905C120.917,172.896,120.051,173.396,120.41,173.933L120.41,173.933z"/>
					</g>
				</g>
				<g>
					<g>
						<path style="fill:#C66D5C;" d="M119.241,185.523c1.446,1.318,3.996,3.306,6.11,2.538c1.624-0.589,1.889-2.715,0.726-3.868
							c-0.458-0.454-1.165,0.253-0.707,0.707c0.441,0.438,0.588,1.152,0.263,1.711c-0.49,0.841-1.673,0.605-2.413,0.322
							c-1.221-0.467-2.312-1.242-3.273-2.117C119.473,184.383,118.764,185.089,119.241,185.523L119.241,185.523z"/>
					</g>
				</g>
				<g>
					<g>
						<path style="fill:#C66D5C;" d="M118.789,180.608c1.635,1.096,3.257,2.215,4.906,3.289c1.043,0.679,2.107,1.38,3.388,1.448
							c1.929,0.101,3.611-1.467,2.802-3.422c-0.243-0.586-1.211-0.329-0.964,0.266c1.354,3.27-2.848,1.954-3.592,1.56
							c-0.716-0.378-1.377-0.882-2.049-1.332c-1.329-0.891-2.657-1.782-3.986-2.672
							C118.757,179.386,118.256,180.251,118.789,180.608L118.789,180.608z"/>
					</g>
				</g>
			</g>
			<g>
				<path style="fill:#FFFFFF;" d="M153.49,194.661l-7.2-9.023c0,0-11.123,7.201-13.969,13.108l6.412,7.718
					C138.733,206.465,149.969,193.973,153.49,194.661z"/>
			</g>
			<g>
				<path style="fill:#2974B8;" d="M151.202,189.381c0,0-12.167,8.671-16.468,15.671c0,0,7.695,13.652,11.658,15.615
					c3.963,1.963,22.224-11.717,19.859-17.503C163.886,197.375,151.202,189.381,151.202,189.381z"/>
			</g>
		</g>
		<g>
			<g>
				<g>
					<path style="fill:#EE987E;" d="M222.947,81.281c-0.088-1.175-2.418-5.316-3.667-0.87c-0.57,11.142-0.884,11.335-0.978,21.625
						c-5.228-3.207-7.077,4.584-7.077,4.584c-4.387-1.516-4.449,3.639-4.449,3.639c-2.535-1.763-3.538,1.629-3.924,3.276
						c-1.069,4.554-0.879,3.757,0.958,7.592c1.851,3.864,2.716,6.763,4.947,8.532c5.51,4.368,6.578,18.15,7.343,25.367
						c0.338,3.185,9.926,0.768,10.248,0.882c0.539,0.192,6.1-5.609,5.913-6.149c-1.61-4.642-5.438-10.091-6.072-18.481
						c-0.355-4.69,2.595-12.656,2.762-17.354c0.182-5.134-2.721-4.212-3.089-9.334C225.336,97.242,223.61,90.158,222.947,81.281z"/>
				</g>
				<g>
					<g>
						<path style="fill:#C66D5C;" d="M224.351,110.577c-0.981-0.252-1.712-0.938-2.697-1.145c-0.711-0.149-1.542-0.122-2.265-0.102
							c-2.129,0.06-3.173,1.631-4.882,2.843c-1.162,0.823-3.032,1.462-4.007,2.487c-0.574,0.603-0.596,0.716,0.002,1.497
							c0.898,1.174,2.626,1.805,4.04,1.995c1.487,0.2,2.437-0.429,3.712-1.156c0.13-0.074,1.905-1.232,1.639-1.277
							c-0.453-0.077,0.175,3.485,0.318,3.857c0.567,1.475,1.64,2.574,3.187,2.946c0.625,0.15,0.892-0.814,0.266-0.964
							c-1.464-0.352-2.318-1.475-2.7-2.898c-0.132-0.491,0.149-2.729-0.08-3.105c-0.243-0.399-0.251-0.518-0.773-0.569
							c-0.581-0.057-1.481,0.641-1.936,0.898c-1.375,0.778-2.376,1.561-4.023,1.183c-0.419-0.096-3.11-0.955-3.072-1.594
							c0.007-0.127,0.969-0.56,1.076-0.622c1.19-0.692,2.347-1.431,3.457-2.247c1.466-1.077,2.384-2.277,4.275-2.27
							c1.643,0.005,2.672,0.816,4.198,1.208C224.709,111.701,224.975,110.737,224.351,110.577L224.351,110.577z"/>
					</g>
				</g>
				<g>
					<g>
						<path style="fill:#C66D5C;" d="M217.306,105.286c0.195,1.662,0.779,3.188,1.799,4.52c0.386,0.504,1.255,0.006,0.864-0.505
							c-0.907-1.183-1.488-2.529-1.663-4.015C218.232,104.655,217.231,104.647,217.306,105.286L217.306,105.286z"/>
					</g>
				</g>
				<g>
					<g>
						<path style="fill:#C66D5C;" d="M211.808,107.867c0.163,1.831,1.124,3.909,2.438,5.201c0.46,0.451,1.167-0.255,0.707-0.707
							c-1.116-1.096-2.006-2.932-2.146-4.493C212.751,107.231,211.751,107.225,211.808,107.867L211.808,107.867z"/>
					</g>
				</g>
				<g>
					<g>
						<path style="fill:#C66D5C;" d="M205.18,117.454c0.624,1.849,1.819,4.607,3.929,5.14c1.759,0.444,3.185-1.339,2.702-2.988
							c-0.181-0.616-1.146-0.354-0.964,0.266c0.215,0.734-0.135,1.468-0.863,1.714c-0.774,0.261-1.492-0.361-1.964-0.915
							c-0.858-1.007-1.456-2.237-1.876-3.482C205.939,116.581,204.973,116.842,205.18,117.454L205.18,117.454z"/>
					</g>
				</g>
				<g>
					<g>
						<path style="fill:#C66D5C;" d="M207.16,112.935c0.851,1.653,1.701,3.307,2.554,4.959c0.612,1.183,1.236,2.465,2.407,3.194
							c1.703,1.061,3.955,0.41,4.131-1.752c0.052-0.641-0.948-0.638-1,0c-1.192,1.336-2.244,1.492-3.155,0.467
							c-0.338-0.359-0.626-0.752-0.865-1.181c-0.357-0.581-0.644-1.212-0.956-1.817c-0.751-1.459-1.503-2.917-2.254-4.376
							C207.728,111.858,206.865,112.363,207.16,112.935L207.16,112.935z"/>
					</g>
				</g>
			</g>
			<g>
				<path style="fill:#FFFFFF;" d="M230.745,142.016l-1.941-11.379c0,0-13.218,0.926-18.565,4.722l1.881,9.856
					C212.12,145.215,227.995,139.711,230.745,142.016z"/>
			</g>
			<g>
				<path style="fill:#243B6F;" d="M231.295,136.287c0,0-14.842,1.709-21.992,5.757c0,0,0.137,15.67,2.657,19.305
					c2.52,3.634,25.119,0.487,25.846-5.722C238.533,149.417,231.295,136.287,231.295,136.287z"/>
			</g>
		</g>
	</g>
</g>
</svg>
